<svg width="39" height="40" viewBox="0 0 39 40" fill="none" xmlns="http://www.w3.org/2000/svg">
<path d="M13.2842 21.1274C12.6367 21.3788 11.9055 21.1045 11.5856 20.4875L5.64415 9.04653C4.95098 7.69067 5.47657 6.03774 6.83243 5.34458C6.91622 5.30649 6.99239 5.2684 7.07618 5.23032C8.60723 4.61333 10.2906 5.51215 10.7172 7.06606L10.7248 7.08891L14.0992 19.5125C14.2744 20.1752 13.924 20.876 13.2842 21.1274V21.1274Z" fill="#F98500"/>
<path d="M12.9643 15.3611L11.2809 16.0238C10.9686 16.1381 10.6182 15.9857 10.4888 15.6734C10.3669 15.3611 10.5192 15.0031 10.8315 14.8813L12.6368 14.1729L12.9643 15.3611Z" fill="#FA6D00"/>
<path d="M13.6192 17.7453L12.172 18.2862C11.8597 18.3928 11.5169 18.2481 11.3798 17.9358C11.2579 17.6235 11.4102 17.2655 11.7302 17.1436L13.2993 16.5571L13.6192 17.7453Z" fill="#FA6D00"/>
<path d="M20.4518 9.93771C19.9415 9.58732 19.6825 8.97033 19.7968 8.35334C20.0786 6.93654 19.1645 5.55783 17.7401 5.26838C17.7249 5.26838 17.702 5.26076 17.6868 5.26076C17.1003 5.16174 16.6128 4.74279 16.43 4.1715C16.3843 4.03439 16.3309 3.89728 16.27 3.76779C15.6225 2.47287 14.0534 1.94728 12.7585 2.59474C11.5321 3.20412 10.9837 4.659 11.5016 5.92345C11.7682 6.57853 11.8977 7.17267 11.4483 7.8049C10.6104 8.98556 10.8923 10.6233 12.0729 11.4535C12.0806 11.4611 12.0958 11.4688 12.1034 11.4764C12.6138 11.8344 12.8575 12.459 12.7356 13.0684C12.4614 14.4852 13.3907 15.8639 14.8151 16.1381C16.0948 16.3819 17.3516 15.6582 17.7858 14.4319C19.0807 15.0793 20.6499 14.5461 21.2974 13.2588C21.8763 12.0934 21.5182 10.6842 20.4518 9.93771Z" fill="#598C44"/>
<path d="M26.3935 12.0325C26.0507 11.5145 26.0431 10.8442 26.3783 10.3186C27.1781 9.11509 26.8429 7.48501 25.6394 6.68521C25.6242 6.67759 25.6089 6.66236 25.5937 6.65474C24.8472 6.18247 24.9005 5.51216 24.8396 4.74283C24.733 3.30318 23.4685 2.22154 22.0289 2.32818C20.6654 2.43482 19.6066 3.56978 19.6066 4.94087C19.6066 5.64927 19.4999 6.24341 18.8525 6.66236C17.6337 7.43931 17.2757 9.06177 18.0603 10.2805C18.0679 10.2881 18.0755 10.3034 18.0831 10.311C18.4183 10.8366 18.4183 11.5069 18.0679 12.0249C17.2833 13.236 17.6261 14.8584 18.8372 15.6506C19.9265 16.359 21.3738 16.161 22.2269 15.186C23.1867 16.2676 24.8396 16.3743 25.9212 15.4221C26.8962 14.569 27.0943 13.1217 26.3935 12.0325V12.0325Z" fill="#5F9548"/>
<path d="M30.4687 19.3906L23.1562 16.9531L27.1857 4.87229C27.6732 3.4174 29.1586 2.29006 30.7049 2.32815C31.6646 2.351 32.5635 2.53381 33.3176 3.14319C34.5363 4.11819 35.0162 5.74826 34.5211 7.226L30.4687 19.3906Z" fill="#FFB531"/>
<path d="M25.5938 13.2969V35.2344H7.3125V13.2969L9.14062 14.5156L10.9688 13.2969L12.7969 14.5156L14.625 13.2969L16.4531 14.5156L18.2812 13.2969L20.1094 14.5156L21.9375 13.2969L23.7656 14.5156L25.5938 13.2969Z" fill="#FFB531"/>
<path d="M25.5938 18.3471V35.2344H7.3125V31.5401C14.0232 29.2854 20.673 25.1797 25.5938 18.3471Z" fill="#FCAC1F"/>
<path d="M32.9062 13.2969V35.2344H25.5938V13.2969L27.4219 14.5156L29.25 13.2969L31.0781 14.5156L32.9062 13.2969Z" fill="#F98500"/>
<path d="M7.42676 37.6719C10.1191 37.6719 12.3018 35.4893 12.3018 32.7969C12.3018 30.1045 10.1191 27.9219 7.42676 27.9219C4.73437 27.9219 2.55176 30.1045 2.55176 32.7969C2.55176 35.4893 4.73437 37.6719 7.42676 37.6719Z" fill="#F35244"/>
<path d="M17.6719 24.875L18.2812 26.0938C17.5271 26.8479 17.2225 27.9447 17.4814 28.9883L17.6719 29.75H15.2344V28.8207C15.2344 27.1525 16.1789 25.6215 17.6719 24.875Z" fill="#5F9548"/>
<path d="M14.0992 37.6719C13.3299 37.6719 12.6443 37.1691 12.4234 36.4303L11.0524 31.8523C10.6715 30.5803 11.5094 29.1406 12.9186 29.1406C13.6041 29.1406 14.2363 29.4986 14.5867 30.0852L15.8436 32.1875V35.9275C15.8436 36.8873 15.059 37.6719 14.0992 37.6719V37.6719Z" fill="#5F9548"/>
<path d="M18.8068 37.6719C19.5762 37.6719 20.2617 37.1691 20.4826 36.4303L21.8537 31.8523C22.2422 30.565 21.3891 29.1406 19.9875 29.1406C19.302 29.1406 18.6697 29.4986 18.3193 30.0852L17.0625 32.1875V35.9275C17.0625 36.8873 17.8471 37.6719 18.8068 37.6719V37.6719Z" fill="#5F9548"/>
<path d="M16.4531 29.1406C17.4662 29.1406 18.2812 29.9557 18.2812 30.9688V35.8438C18.2812 36.8568 17.4662 37.6719 16.4531 37.6719C15.44 37.6719 14.625 36.8568 14.625 35.8438V30.9688C14.625 29.9557 15.44 29.1406 16.4531 29.1406Z" fill="#5F9548"/>
<path d="M33.6983 2.67092C32.571 1.76448 31.0247 1.49026 29.5546 1.91682C28.1226 2.33577 27.0485 3.34885 26.6067 4.68186L24.1464 12.0705L23.8569 11.644L22.8362 12.3219V9.86155L24.5272 8.7342L23.8493 7.72112L22.8286 8.39905V5.60354H21.6099V8.39143L20.5968 7.7135L19.9189 8.72659L21.6099 9.85393V12.3143L20.5968 11.6364L19.9189 12.6494L20.8558 13.274L20.1017 13.7768L18.6087 12.7865C18.5401 12.7408 18.4716 12.7104 18.3954 12.6951C18.4411 12.5809 18.5021 12.4666 18.5706 12.36C19.0429 11.6364 19.0429 10.7071 18.5782 9.97581C18.1517 9.32834 18.1669 8.36096 18.6087 7.7135C18.7991 7.43928 19.5761 6.88323 19.7817 6.60901C20.1855 6.07581 20.2312 5.46643 20.2769 4.93323C20.3073 4.51428 20.3378 4.14866 20.5206 3.86682C21.1071 2.92991 22.3487 2.64807 23.2856 3.23459C23.4837 3.35647 23.6513 3.51643 23.796 3.69163C24.1235 4.10295 24.154 4.51428 24.1921 5.07034C24.2073 5.26077 24.2226 5.46643 24.2454 5.67971L25.4565 5.52737C25.4337 5.34456 25.4185 5.16174 25.4108 4.98655C25.3651 4.32385 25.3118 3.64592 24.7558 2.93752C23.6513 1.53596 21.6251 1.29983 20.2235 2.3967C19.9341 2.62522 19.6827 2.89944 19.4847 3.21174C19.1495 3.74495 19.1038 4.32385 19.0581 4.82659C19.0505 4.94084 19.0429 5.04748 19.0276 5.15413C18.6544 4.90276 18.2278 4.72756 17.7784 4.64377C17.4128 4.58284 17.1081 4.32385 16.9939 3.97346C16.7272 3.14319 16.1483 2.45764 15.3714 2.06155C14.6097 1.65784 13.7185 1.58167 12.8958 1.84827C11.6847 2.25198 10.8011 3.38694 10.6944 4.68948C10.6563 5.18459 10.7782 5.61877 10.9001 6.00725C10.3288 5.07034 9.33096 4.4762 8.23408 4.40764L8.25693 1.70354L7.03818 1.69592L7.02295 3.45549L6.2917 1.58167L5.17959 2.04631L5.91084 3.92014L4.70732 2.64045L3.82373 3.47073L5.67471 5.4512C4.66924 6.48713 4.43311 8.04104 5.10342 9.32073L6.36787 11.7582L7.44951 11.1946L6.18506 8.75706C5.64424 7.7135 6.04795 6.4262 7.0915 5.88538C8.13506 5.34456 9.42236 5.74827 9.96319 6.79182C10.0317 6.92893 10.0851 7.06604 10.1308 7.21838L10.1536 7.29456L8.18838 8.06389L8.63018 9.19885L10.4735 8.48284V8.49045C10.3593 8.92463 10.3288 9.37405 10.405 9.82346L9.07959 10.3414L9.52139 11.4764L10.8315 10.966C11.1362 11.4764 11.6618 11.9487 11.6618 11.9487L9.96319 12.6114L10.1612 13.1065L9.14815 13.7844L7.65518 12.7942C7.37334 12.6037 7.0001 12.6799 6.80967 12.9617C6.74111 13.0608 6.71064 13.1826 6.71064 13.2969V26.0938H7.9294V14.4319L8.81299 15.0184C9.01865 15.1555 9.28525 15.1555 9.49092 15.0184L10.9839 14.0281L12.4769 15.0184C12.6825 15.1555 12.9491 15.1555 13.1548 15.0184L14.6478 14.0281L16.1407 15.0184C16.3464 15.1555 16.613 15.1555 16.8187 15.0184L18.3116 14.0281L19.8046 15.0184C20.0103 15.1555 20.2769 15.1555 20.4825 15.0184L21.9755 14.0281L23.4685 15.0184C23.6741 15.1555 23.9407 15.1555 24.1464 15.0184L25.03 14.4319V34.625H22.5925V35.8438H32.9519C33.287 35.8438 33.5612 35.5696 33.5612 35.2344V13.2969C33.5612 13.1141 33.4774 12.9465 33.3403 12.8322L35.1456 7.42405C35.6712 5.70256 35.1075 3.80588 33.6983 2.67092V2.67092ZM17.5728 10.6614C17.6261 10.7451 17.6642 10.8365 17.687 10.9356L17.2681 11.5526L16.3388 9.26741L17.1538 8.06389C16.9405 8.93987 17.0776 9.91487 17.5728 10.6614ZM13.3224 13.4416C13.4823 12.7942 13.3528 12.1162 12.9796 11.5678C12.6216 11.0498 12.0503 10.6918 11.7608 10.1281C11.6085 9.83108 11.5476 9.48831 11.5856 9.15315C11.6771 8.40666 12.2407 7.78206 12.3245 7.03557C12.3855 6.48713 12.1646 5.95393 12.0503 5.41311C11.7837 4.21721 12.5378 3.00608 13.8251 2.94514C14.4497 2.92229 15.0438 3.18889 15.4399 3.66877C15.7903 4.10295 15.9503 4.67424 16.3007 5.11604C16.5597 5.44358 16.9101 5.67971 17.3062 5.79397C17.6946 5.90823 18.1517 5.92346 18.4106 6.23577C17.9612 6.55569 17.5956 6.97463 17.3442 7.46975L16.4759 6.89084L15.7903 7.88108L14.7392 5.31409L13.6194 5.77112L14.663 8.34573L13.4747 8.11721L13.231 9.30549L15.1886 9.74729L16.1407 11.9867L14.9524 11.7582L14.8077 12.4742C14.8001 12.4819 13.6347 13.2131 13.3224 13.4416V13.4416ZM15.4399 13.1065L16.6968 13.3655L16.7806 13.5711L16.453 13.7844L15.4399 13.1065ZM23.3009 13.4721L23.7731 13.1522L23.598 13.6701L23.3009 13.4721ZM26.203 14.4319L27.0866 15.0184C27.2923 15.1555 27.5589 15.1555 27.7646 15.0184L28.6481 14.4319V31.3192L26.2106 33.7567V14.4319H26.203ZM32.2968 14.4319V33.7567L29.8593 31.3192V14.4319L30.7429 15.0184C30.9485 15.1555 31.2151 15.1555 31.4208 15.0184L32.2968 14.4319ZM29.2499 32.4389L31.436 34.625H27.0638L29.2499 32.4389ZM33.9421 7.03557L31.8702 13.2512L31.078 13.7768L29.5851 12.7865C29.3794 12.6494 29.1128 12.6494 28.9071 12.7865L27.4142 13.7768C27.4142 13.7768 25.8907 12.7637 25.8755 12.7561C25.6774 12.6494 25.4337 12.6647 25.2509 12.7865L25.1595 12.8475L27.7569 5.06272C28.0769 4.11057 28.8538 3.39456 29.8974 3.08225C30.979 2.76233 32.114 2.96038 32.9366 3.61545C33.9497 4.43811 34.3534 5.80159 33.9421 7.03557V7.03557Z" fill="black"/>
<path d="M28.5288 6.61169L32.1864 6.00333L32.3863 7.20501L28.7287 7.81338L28.5288 6.61169Z" fill="black"/>
<path d="M27.3091 10.2661L30.9667 9.65768L31.1666 10.8594L27.509 11.4677L27.3091 10.2661Z" fill="black"/>
<path d="M19.9949 28.5313C19.3246 28.5237 18.6771 28.7903 18.2049 29.2701C18.1973 29.2625 18.1896 29.2549 18.182 29.2397L18.083 28.836C18.083 28.8283 18.083 28.8283 18.0754 28.8207C17.8393 27.9904 18.3115 26.9393 18.7229 26.528C18.9057 26.3451 18.9514 26.0557 18.8371 25.8272L18.2277 24.6084C18.0754 24.3037 17.7098 24.1819 17.4127 24.3342C15.7064 25.1797 14.6324 26.924 14.64 28.8207V29.1483C14.4953 29.0416 14.3354 28.9426 14.1754 28.8512C12.9947 28.219 11.4637 28.6151 10.7629 29.7272C10.3592 30.3746 10.2525 31.2506 10.4811 32.0199L11.2732 34.6631C10.2221 36.7731 7.6627 37.6338 5.55273 36.5903C3.46563 35.5543 2.59727 33.033 3.60273 30.9307C3.61797 30.9002 3.6332 30.8697 3.64844 30.8393L3.67129 32.9112L4.89004 32.8959L4.85195 30.3594L7.28184 30.4737L7.34277 29.2549L5.2252 29.1559C5.85742 28.7674 6.58867 28.5541 7.32754 28.5313C8.21113 28.5084 9.07949 28.7598 9.81074 29.2549L10.4887 28.2418C9.11758 27.3201 7.40371 27.0688 5.82695 27.5487L6.08594 26.9393L4.96621 26.4594L4.12832 28.4094C4.06738 28.4551 3.99883 28.5084 3.93789 28.5617L2.0793 26.7031L1.21855 27.5639L3.09238 29.4377C3.0543 29.491 3.01621 29.5444 2.97812 29.5977L0.982422 30.4508L1.4623 31.5705L2.16309 31.2658C1.31758 34.1756 2.99336 37.2149 5.90312 38.0604C7.82266 38.6164 9.89453 38.0832 11.3113 36.6664C11.4561 36.5217 11.5932 36.3617 11.7227 36.2018L11.8445 36.5979C12.2178 37.8471 13.5279 38.5479 14.7771 38.1746C14.9523 38.1213 15.1123 38.0528 15.2723 37.9613C16.0111 38.3727 16.91 38.3727 17.6488 37.9613C18.7762 38.6088 20.2158 38.2127 20.8633 37.0854C20.9547 36.933 21.0232 36.7654 21.0766 36.5903L22.4477 32.0123C22.5314 31.7076 22.5695 31.3877 22.5543 31.0678C22.5467 29.6738 21.4041 28.5313 19.9949 28.5313V28.5313ZM17.4203 25.7358L17.5574 26.01C17.0775 26.6727 16.7348 27.6401 16.7957 28.5541C16.6205 28.5237 16.1406 28.5008 15.8512 28.6074C15.9121 27.4572 16.491 26.4061 17.4203 25.7358ZM13.01 36.2551L11.6389 31.6772C11.5094 31.243 11.5703 30.725 11.7836 30.3822C12.134 29.8186 12.9795 29.6053 13.5889 29.9328C13.8783 30.0852 13.9926 30.1918 14.1068 30.3365C14.0535 30.5422 14.023 30.7555 14.023 30.9688V35.8438C14.023 36.2627 14.1297 36.674 14.3354 37.0397C13.7488 37.1615 13.1775 36.8188 13.01 36.2551ZM15.2342 35.8438V30.9688C15.2342 30.2985 15.7826 29.75 16.4529 29.75C17.1232 29.75 17.6717 30.2985 17.6717 30.9688V35.8438C17.6717 36.5141 17.1232 37.0625 16.4529 37.0625C15.7826 37.0625 15.2342 36.5141 15.2342 35.8438ZM21.2746 31.6772L19.9035 36.2551C19.7359 36.8188 19.157 37.1615 18.5781 37.0397C18.7838 36.674 18.8904 36.2627 18.8904 35.8438V30.9688C18.8904 30.7783 18.8676 30.5955 18.8219 30.4127C18.9818 30.169 19.3475 29.75 19.9873 29.75C20.7262 29.75 21.3203 30.3518 21.3203 31.083C21.3355 31.2811 21.3203 31.4867 21.2746 31.6772V31.6772Z" fill="black"/>
</svg>
