<svg width="18" height="20" viewBox="0 0 18 20" fill="none" xmlns="http://www.w3.org/2000/svg">
<path fill-rule="evenodd" clip-rule="evenodd" d="M8.48825 1.00885C8.78917 0.774799 9.2105 0.774799 9.51142 1.00885L17.0114 6.84219C17.2144 7.00006 17.3332 7.24282 17.3332 7.49998V16.6666C17.3332 17.3297 17.0698 17.9656 16.6009 18.4344C16.1321 18.9032 15.4963 19.1666 14.8332 19.1666H3.1665C2.50346 19.1666 1.86758 18.9032 1.39874 18.4344C0.929896 17.9656 0.666504 17.3297 0.666504 16.6666V7.49998C0.666504 7.24282 0.785229 7.00006 0.988221 6.84219L8.48825 1.00885ZM2.33317 7.90755V16.6666C2.33317 16.8876 2.42097 17.0996 2.57725 17.2559C2.73353 17.4121 2.94549 17.5 3.1665 17.5H14.8332C15.0542 17.5 15.2662 17.4121 15.4224 17.2559C15.5787 17.0996 15.6665 16.8876 15.6665 16.6666V7.90755L8.99984 2.72236L2.33317 7.90755Z" fill="#3BB77E"/>
</svg>
