<svg width="17" height="20" viewBox="0 0 17 20" fill="none" xmlns="http://www.w3.org/2000/svg">
<path d="M12.0157 3.72429C11.0633 2.91715 10.0823 2.07984 9.08949 1.09017L8.52359 0.528259L7.96803 1.09096C6.18073 2.88302 5.33628 5.63461 4.96961 7.28541C4.68896 6.85041 4.4807 6.37278 4.35295 5.87112L4.01723 4.57508L3.04104 5.49255C1.33073 7.0981 0.190253 8.69096 0.190253 11.2417C0.174281 13.0816 0.773519 14.8741 1.8928 16.3345C3.01208 17.7948 4.58721 18.8393 6.36803 19.3021C6.9046 19.4326 7.45224 19.5123 8.00375 19.5402C8.17618 19.562 8.34978 19.5733 8.52359 19.5743C8.61482 19.5743 8.70378 19.5664 8.79263 19.5608C10.9546 19.4957 13.0063 18.5908 14.5119 17.0378C16.0175 15.4849 16.8587 13.4063 16.8569 11.2433C16.8569 7.83541 14.6133 5.93064 12.0157 3.72429ZM8.68235 17.9735C8.60292 17.9735 8.52359 17.9814 8.43945 17.9807C7.72511 17.9588 7.04722 17.6601 6.54902 17.1477C6.05083 16.6353 5.77134 15.9493 5.76961 15.2346C5.76961 14.2283 6.3093 13.7267 7.53073 12.687C7.83866 12.4251 8.17359 12.1402 8.52597 11.814C8.83473 12.0941 9.13473 12.3481 9.41168 12.5838C10.6386 13.6251 11.2791 14.2164 11.2791 15.2322C11.2778 15.9342 11.0082 16.6092 10.5254 17.1188C10.0425 17.6284 9.38321 17.9342 8.68235 17.9735ZM12.6664 16.5679L12.6505 16.5791C12.793 16.1451 12.8659 15.6913 12.8664 15.2346C12.8664 13.437 11.6871 12.4354 10.4395 11.3759C9.9974 11.0013 9.54102 10.614 9.08549 10.1584L8.52359 9.59735L7.96247 10.1584C7.44819 10.6719 6.94501 11.1005 6.50136 11.4783C5.25692 12.537 4.18152 13.4521 4.18152 15.2346C4.18321 15.711 4.26366 16.1837 4.41961 16.6338C3.59347 15.9994 2.92515 15.1827 2.46683 14.2473C2.00852 13.312 1.77261 12.2833 1.77756 11.2417C1.7645 9.84906 2.30354 8.50788 3.27676 7.5116C3.4444 7.85169 3.64313 8.17556 3.87041 8.47905C4.03641 8.70305 4.26433 8.87359 4.52607 8.96962C4.78781 9.06566 5.07194 9.08301 5.34342 9.01953C5.6196 8.95804 5.87223 8.81831 6.0711 8.61705C6.26998 8.41579 6.40667 8.1615 6.46485 7.88461C6.79717 6.06052 7.5159 4.32863 8.57282 2.80524C9.41006 3.59889 10.2395 4.30127 10.9879 4.93699C13.4736 7.0481 15.2736 8.5735 15.2736 11.2465C15.2755 12.274 15.0414 13.2882 14.5892 14.2109C14.137 15.1335 13.4789 15.9399 12.6657 16.5679H12.6664Z" fill="#333333"/>
</svg>
