<svg width="24" height="24" viewBox="0 0 24 24" fill="none" xmlns="http://www.w3.org/2000/svg">
<rect width="24" height="24" fill="white"/>
<path fill-rule="evenodd" clip-rule="evenodd" d="M4.95051 2.48106C5.72844 2.15804 6.56249 1.99176 7.40482 1.99176C8.24715 1.99176 9.08119 2.15804 9.85912 2.48106C10.6371 2.80408 11.3436 3.27749 11.9382 3.87414L11.9415 3.87748L11.9998 3.93659L12.0582 3.87749L12.0615 3.87414C12.6561 3.27749 13.3626 2.80408 14.1405 2.48106C14.9184 2.15804 15.7525 1.99176 16.5948 1.99176C17.4371 1.99176 18.2712 2.15804 19.0491 2.48106C19.8268 2.80397 20.5331 3.27717 21.1275 3.87353C23.6726 6.41922 23.7291 10.6284 20.7135 13.7005L20.707 13.7072L12.7069 21.7071C12.5194 21.8947 12.265 22 11.9998 22C11.7346 22 11.4802 21.8947 11.2927 21.7071L3.28615 13.7006C0.270454 10.6284 0.327075 6.41921 2.8721 3.87352C3.46656 3.27716 4.17285 2.80397 4.95051 2.48106ZM7.40482 3.99176C6.82572 3.99176 6.25231 4.10608 5.71748 4.32815C5.18266 4.55023 4.69693 4.8757 4.28815 5.2859L4.28693 5.28713C2.59331 6.98074 2.38957 9.92928 4.71033 12.2963L11.9998 19.5858L19.2893 12.2963C21.6101 9.92929 21.4063 6.98074 19.7127 5.28713L19.7115 5.2859C19.3027 4.8757 18.817 4.55023 18.2822 4.32815C17.7473 4.10608 17.1739 3.99176 16.5948 3.99176C16.0157 3.99176 15.4423 4.10608 14.9075 4.32815C14.3734 4.54994 13.8882 4.87484 13.4798 5.28428C13.4792 5.28482 13.4787 5.28536 13.4782 5.2859L12.7115 6.06255C12.5236 6.25288 12.2673 6.36002 11.9998 6.36002C11.7324 6.36002 11.4761 6.25288 11.2882 6.06255L10.5215 5.2859C10.5209 5.28536 10.5204 5.28482 10.5199 5.28428C10.1114 4.87484 9.62628 4.54994 9.09215 4.32815C8.55733 4.10608 7.98392 3.99176 7.40482 3.99176Z" fill="#333333"/>
</svg>
