<svg width="83" height="54" viewBox="0 0 83 54" fill="none" xmlns="http://www.w3.org/2000/svg">
<path d="M13.408 25.224C13.8933 25.224 14.2947 25.3827 14.612 25.7C14.948 25.9987 15.116 26.3907 15.116 26.876C15.116 27.3427 14.948 27.7347 14.612 28.052C14.2947 28.3507 13.8933 28.5 13.408 28.5H4.308C3.82267 28.5 3.412 28.3413 3.076 28.024C2.75867 27.688 2.6 27.2773 2.6 26.792V10.608C2.6 10.1227 2.768 9.72133 3.104 9.404C3.44 9.068 3.86933 8.9 4.392 8.9C4.84 8.9 5.232 9.068 5.568 9.404C5.92267 9.72133 6.1 10.1227 6.1 10.608V25.7L5.484 25.224H13.408ZM20.0867 8.872C20.348 8.872 20.6187 8.94667 20.8987 9.096C21.1973 9.22667 21.4213 9.404 21.5707 9.628L28.3747 20.1L26.9747 20.044L33.9467 9.628C34.3013 9.124 34.7587 8.872 35.3187 8.872C35.7667 8.872 36.168 9.03067 36.5227 9.348C36.8773 9.66533 37.0547 10.076 37.0547 10.58V26.792C37.0547 27.2773 36.896 27.688 36.5787 28.024C36.2613 28.3413 35.8413 28.5 35.3187 28.5C34.796 28.5 34.3667 28.3413 34.0307 28.024C33.7133 27.688 33.5547 27.2773 33.5547 26.792V13.604L34.6467 13.856L28.9347 22.564C28.7667 22.7693 28.552 22.9467 28.2907 23.096C28.048 23.2453 27.796 23.3107 27.5347 23.292C27.292 23.3107 27.04 23.2453 26.7787 23.096C26.536 22.9467 26.3307 22.7693 26.1627 22.564L20.8147 14.108L21.5427 12.624V26.792C21.5427 27.2773 21.3933 27.688 21.0947 28.024C20.796 28.3413 20.404 28.5 19.9187 28.5C19.452 28.5 19.0693 28.3413 18.7707 28.024C18.472 27.688 18.3227 27.2773 18.3227 26.792V10.58C18.3227 10.1133 18.4907 9.712 18.8267 9.376C19.1813 9.04 19.6013 8.872 20.0867 8.872ZM43.0561 8.9C43.5041 8.9 43.8961 9.068 44.2321 9.404C44.5867 9.72133 44.7641 10.1227 44.7641 10.608V26.792C44.7641 27.2773 44.5867 27.688 44.2321 28.024C43.8774 28.3413 43.4667 28.5 43.0001 28.5C42.4774 28.5 42.0574 28.3413 41.7401 28.024C41.4227 27.688 41.2641 27.2773 41.2641 26.792V10.608C41.2641 10.1227 41.4321 9.72133 41.7681 9.404C42.1041 9.068 42.5334 8.9 43.0561 8.9ZM55.4601 8.9C55.9827 8.9 56.4027 9.068 56.7201 9.404C57.0374 9.72133 57.1961 10.1227 57.1961 10.608V26.792C57.1961 27.2773 57.0281 27.688 56.6921 28.024C56.3747 28.3413 55.9454 28.5 55.4041 28.5C54.9561 28.5 54.5547 28.3413 54.2001 28.024C53.8641 27.688 53.6961 27.2773 53.6961 26.792V10.608C53.6961 10.1227 53.8734 9.72133 54.2281 9.404C54.5827 9.068 54.9934 8.9 55.4601 8.9ZM42.9721 17.048H55.4601V20.268H42.9721V17.048ZM63.1531 8.872C63.4144 8.872 63.6851 8.94667 63.9651 9.096C64.2637 9.22667 64.4877 9.404 64.6371 9.628L71.4411 20.1L70.0411 20.044L77.0131 9.628C77.3677 9.124 77.8251 8.872 78.3851 8.872C78.8331 8.872 79.2344 9.03067 79.5891 9.348C79.9437 9.66533 80.1211 10.076 80.1211 10.58V26.792C80.1211 27.2773 79.9624 27.688 79.6451 28.024C79.3277 28.3413 78.9077 28.5 78.3851 28.5C77.8624 28.5 77.4331 28.3413 77.0971 28.024C76.7797 27.688 76.6211 27.2773 76.6211 26.792V13.604L77.7131 13.856L72.0011 22.564C71.8331 22.7693 71.6184 22.9467 71.3571 23.096C71.1144 23.2453 70.8624 23.3107 70.6011 23.292C70.3584 23.3107 70.1064 23.2453 69.8451 23.096C69.6024 22.9467 69.3971 22.7693 69.2291 22.564L63.8811 14.108L64.6091 12.624V26.792C64.6091 27.2773 64.4597 27.688 64.1611 28.024C63.8624 28.3413 63.4704 28.5 62.9851 28.5C62.5184 28.5 62.1357 28.3413 61.8371 28.024C61.5384 27.688 61.3891 27.2773 61.3891 26.792V10.58C61.3891 10.1133 61.5571 9.712 61.8931 9.376C62.2477 9.04 62.6677 8.872 63.1531 8.872Z" fill="#3BB77E"/>
<path d="M15.2195 49.64C14.5008 49.64 13.8335 49.514 13.2175 49.262C12.6108 49.0007 12.0742 48.6413 11.6075 48.184C11.1502 47.7267 10.7908 47.1947 10.5295 46.588C10.2775 45.972 10.1515 45.3093 10.1515 44.6C10.1515 43.8813 10.2775 43.2187 10.5295 42.612C10.7908 41.996 11.1502 41.4593 11.6075 41.002C12.0742 40.5447 12.6108 40.19 13.2175 39.938C13.8335 39.686 14.5008 39.56 15.2195 39.56C15.6955 39.56 16.1528 39.616 16.5915 39.728C17.0395 39.8307 17.4455 39.994 17.8095 40.218C17.9028 40.2647 17.9682 40.33 18.0055 40.414C18.0522 40.498 18.0755 40.5867 18.0755 40.68C18.0755 40.8387 18.0195 40.974 17.9075 41.086C17.8048 41.198 17.6835 41.254 17.5435 41.254C17.4875 41.254 17.4315 41.2447 17.3755 41.226C17.3288 41.2073 17.2775 41.1887 17.2215 41.17C16.9322 41.0207 16.6195 40.904 16.2835 40.82C15.9475 40.7267 15.5928 40.68 15.2195 40.68C14.4822 40.68 13.8195 40.8527 13.2315 41.198C12.6528 41.5433 12.1955 42.01 11.8595 42.598C11.5235 43.186 11.3555 43.8533 11.3555 44.6C11.3555 45.3373 11.5235 46.0047 11.8595 46.602C12.1955 47.19 12.6528 47.6567 13.2315 48.002C13.8195 48.3473 14.4822 48.52 15.2195 48.52C15.5928 48.52 15.9755 48.4687 16.3675 48.366C16.7688 48.2633 17.1095 48.1327 17.3895 47.974L17.2915 48.31V45.356L17.5155 45.552H15.3735C15.2148 45.552 15.0795 45.5007 14.9675 45.398C14.8648 45.286 14.8135 45.1507 14.8135 44.992C14.8135 44.8333 14.8648 44.7027 14.9675 44.6C15.0795 44.488 15.2148 44.432 15.3735 44.432H17.9215C18.0895 44.432 18.2248 44.488 18.3275 44.6C18.4302 44.712 18.4815 44.8473 18.4815 45.006V48.24C18.4815 48.352 18.4535 48.45 18.3975 48.534C18.3508 48.618 18.2855 48.688 18.2015 48.744C17.7815 49.0147 17.3148 49.234 16.8015 49.402C16.2975 49.5607 15.7702 49.64 15.2195 49.64ZM21.1319 49.5C20.9545 49.5 20.8005 49.444 20.6699 49.332C20.5485 49.22 20.4879 49.0847 20.4879 48.926V40.26C20.4879 40.1013 20.5392 39.9707 20.6419 39.868C20.7539 39.756 20.8892 39.7 21.0479 39.7H24.9119C25.4345 39.7 25.9059 39.8213 26.3259 40.064C26.7459 40.2973 27.0772 40.624 27.3199 41.044C27.5719 41.4547 27.6979 41.9307 27.6979 42.472C27.6979 42.864 27.6232 43.2327 27.4739 43.578C27.3245 43.914 27.1192 44.208 26.8579 44.46C26.5965 44.7027 26.2979 44.8893 25.9619 45.02L25.6539 44.796C25.9712 44.8707 26.2559 45.006 26.5079 45.202C26.7599 45.3887 26.9652 45.6313 27.1239 45.93C27.2825 46.2193 27.3665 46.56 27.3759 46.952C27.3945 47.2973 27.4179 47.5727 27.4459 47.778C27.4739 47.9833 27.5159 48.1467 27.5719 48.268C27.6279 48.38 27.7072 48.4687 27.8099 48.534C27.9405 48.618 28.0245 48.73 28.0619 48.87C28.1085 49.01 28.0852 49.1453 27.9919 49.276C27.9359 49.36 27.8565 49.4207 27.7539 49.458C27.6512 49.486 27.5485 49.4953 27.4459 49.486C27.3432 49.4767 27.2545 49.4487 27.1799 49.402C27.0305 49.318 26.8859 49.1967 26.7459 49.038C26.6059 48.87 26.4892 48.632 26.3959 48.324C26.3025 48.016 26.2559 47.596 26.2559 47.064C26.2559 46.7653 26.2092 46.518 26.1159 46.322C26.0225 46.126 25.8965 45.9673 25.7379 45.846C25.5792 45.7247 25.4019 45.6407 25.2059 45.594C25.0099 45.5473 24.8092 45.524 24.6039 45.524H21.4819L21.6499 45.272V48.926C21.6499 49.0847 21.6032 49.22 21.5099 49.332C21.4165 49.444 21.2905 49.5 21.1319 49.5ZM21.4819 44.516H24.9119C25.1825 44.4973 25.4345 44.404 25.6679 44.236C25.9105 44.068 26.1065 43.8347 26.2559 43.536C26.4145 43.228 26.4939 42.8827 26.4939 42.5C26.4939 42.0053 26.3352 41.5947 26.0179 41.268C25.7099 40.9413 25.3179 40.778 24.8419 40.778H21.5379L21.6499 40.512V44.768L21.4819 44.516ZM38.6461 44.6C38.6461 45.3187 38.5294 45.986 38.2961 46.602C38.0627 47.2087 37.7361 47.7407 37.3161 48.198C36.8961 48.6553 36.3967 49.01 35.8181 49.262C35.2394 49.514 34.6094 49.64 33.9281 49.64C33.2374 49.64 32.6027 49.514 32.0241 49.262C31.4547 49.01 30.9601 48.6553 30.5401 48.198C30.1201 47.7407 29.7934 47.2087 29.5601 46.602C29.3267 45.986 29.2101 45.3187 29.2101 44.6C29.2101 43.872 29.3267 43.2047 29.5601 42.598C29.7934 41.982 30.1201 41.45 30.5401 41.002C30.9601 40.5447 31.4547 40.19 32.0241 39.938C32.6027 39.686 33.2374 39.56 33.9281 39.56C34.6094 39.56 35.2394 39.686 35.8181 39.938C36.3967 40.19 36.8961 40.5447 37.3161 41.002C37.7361 41.45 38.0627 41.982 38.2961 42.598C38.5294 43.2047 38.6461 43.872 38.6461 44.6ZM37.4421 44.6C37.4421 43.8347 37.2881 43.158 36.9801 42.57C36.6814 41.982 36.2707 41.52 35.7481 41.184C35.2254 40.848 34.6187 40.68 33.9281 40.68C33.2374 40.68 32.6261 40.848 32.0941 41.184C31.5714 41.52 31.1607 41.982 30.8621 42.57C30.5634 43.158 30.4141 43.8347 30.4141 44.6C30.4141 45.356 30.5634 46.0327 30.8621 46.63C31.1607 47.218 31.5714 47.68 32.0941 48.016C32.6261 48.352 33.2374 48.52 33.9281 48.52C34.6187 48.52 35.2254 48.352 35.7481 48.016C36.2707 47.68 36.6814 47.218 36.9801 46.63C37.2881 46.0327 37.4421 45.356 37.4421 44.6ZM47.5595 40.344C47.7182 40.428 47.8068 40.554 47.8255 40.722C47.8535 40.89 47.8115 41.044 47.6995 41.184C47.6155 41.3053 47.5082 41.3707 47.3775 41.38C47.2468 41.3893 47.1162 41.3613 46.9855 41.296C46.6775 41.1093 46.3462 40.9647 45.9915 40.862C45.6368 40.75 45.2635 40.694 44.8715 40.694C44.3208 40.694 43.8168 40.792 43.3595 40.988C42.9022 41.1747 42.5055 41.4407 42.1695 41.786C41.8335 42.1313 41.5722 42.542 41.3855 43.018C41.1988 43.494 41.1055 44.0213 41.1055 44.6C41.1055 45.216 41.2035 45.7667 41.3995 46.252C41.5955 46.7373 41.8615 47.1527 42.1975 47.498C42.5428 47.834 42.9395 48.0907 43.3875 48.268C43.8448 48.4453 44.3395 48.534 44.8715 48.534C45.2542 48.534 45.6228 48.4827 45.9775 48.38C46.3322 48.2773 46.6682 48.128 46.9855 47.932C47.1162 47.8667 47.2468 47.8433 47.3775 47.862C47.5082 47.8807 47.6202 47.946 47.7135 48.058C47.8255 48.2073 47.8675 48.366 47.8395 48.534C47.8115 48.6927 47.7228 48.8093 47.5735 48.884C47.3402 49.024 47.0742 49.1547 46.7755 49.276C46.4768 49.388 46.1642 49.4767 45.8375 49.542C45.5202 49.6073 45.1982 49.64 44.8715 49.64C44.1995 49.64 43.5648 49.5233 42.9675 49.29C42.3702 49.0567 41.8428 48.7207 41.3855 48.282C40.9282 47.8433 40.5642 47.316 40.2935 46.7C40.0322 46.0747 39.9015 45.3747 39.9015 44.6C39.9015 43.872 40.0275 43.2047 40.2795 42.598C40.5315 41.9913 40.8815 41.464 41.3295 41.016C41.7868 40.568 42.3142 40.218 42.9115 39.966C43.5182 39.714 44.1715 39.588 44.8715 39.588C45.3568 39.588 45.8282 39.6533 46.2855 39.784C46.7522 39.9147 47.1768 40.1013 47.5595 40.344ZM50.0869 39.7H55.0709C55.2296 39.7 55.3649 39.7513 55.4769 39.854C55.5889 39.9567 55.6449 40.0873 55.6449 40.246C55.6449 40.4047 55.5889 40.5353 55.4769 40.638C55.3649 40.7313 55.2296 40.778 55.0709 40.778H50.5629L50.6889 40.54V44.082L50.5489 43.928H54.4409C54.5996 43.928 54.7349 43.9793 54.8469 44.082C54.9589 44.1847 55.0149 44.3153 55.0149 44.474C55.0149 44.6327 54.9589 44.7633 54.8469 44.866C54.7349 44.9593 54.5996 45.006 54.4409 45.006H50.5909L50.6889 44.88V48.506L50.6049 48.408H55.0709C55.2296 48.408 55.3649 48.464 55.4769 48.576C55.5889 48.688 55.6449 48.814 55.6449 48.954C55.6449 49.1127 55.5889 49.2433 55.4769 49.346C55.3649 49.4487 55.2296 49.5 55.0709 49.5H50.0869C49.9283 49.5 49.7929 49.444 49.6809 49.332C49.5783 49.22 49.5269 49.0847 49.5269 48.926V40.26C49.5269 40.1013 49.5783 39.9707 49.6809 39.868C49.7929 39.756 49.9283 39.7 50.0869 39.7ZM58.1553 49.5C57.978 49.5 57.824 49.444 57.6933 49.332C57.572 49.22 57.5113 49.0847 57.5113 48.926V40.26C57.5113 40.1013 57.5626 39.9707 57.6653 39.868C57.7773 39.756 57.9126 39.7 58.0713 39.7H61.9353C62.458 39.7 62.9293 39.8213 63.3493 40.064C63.7693 40.2973 64.1006 40.624 64.3433 41.044C64.5953 41.4547 64.7213 41.9307 64.7213 42.472C64.7213 42.864 64.6466 43.2327 64.4973 43.578C64.348 43.914 64.1426 44.208 63.8813 44.46C63.62 44.7027 63.3213 44.8893 62.9853 45.02L62.6773 44.796C62.9946 44.8707 63.2793 45.006 63.5313 45.202C63.7833 45.3887 63.9886 45.6313 64.1473 45.93C64.306 46.2193 64.39 46.56 64.3993 46.952C64.418 47.2973 64.4413 47.5727 64.4693 47.778C64.4973 47.9833 64.5393 48.1467 64.5953 48.268C64.6513 48.38 64.7306 48.4687 64.8333 48.534C64.964 48.618 65.048 48.73 65.0853 48.87C65.132 49.01 65.1086 49.1453 65.0153 49.276C64.9593 49.36 64.88 49.4207 64.7773 49.458C64.6746 49.486 64.572 49.4953 64.4693 49.486C64.3666 49.4767 64.278 49.4487 64.2033 49.402C64.054 49.318 63.9093 49.1967 63.7693 49.038C63.6293 48.87 63.5126 48.632 63.4193 48.324C63.326 48.016 63.2793 47.596 63.2793 47.064C63.2793 46.7653 63.2326 46.518 63.1393 46.322C63.046 46.126 62.92 45.9673 62.7613 45.846C62.6026 45.7247 62.4253 45.6407 62.2293 45.594C62.0333 45.5473 61.8326 45.524 61.6273 45.524H58.5053L58.6733 45.272V48.926C58.6733 49.0847 58.6266 49.22 58.5333 49.332C58.44 49.444 58.314 49.5 58.1553 49.5ZM58.5053 44.516H61.9353C62.206 44.4973 62.458 44.404 62.6913 44.236C62.934 44.068 63.13 43.8347 63.2793 43.536C63.438 43.228 63.5173 42.8827 63.5173 42.5C63.5173 42.0053 63.3586 41.5947 63.0413 41.268C62.7333 40.9413 62.3413 40.778 61.8653 40.778H58.5613L58.6733 40.512V44.768L58.5053 44.516ZM72.6628 39.644C72.8215 39.644 72.9521 39.7047 73.0548 39.826C73.1668 39.938 73.2228 40.0687 73.2228 40.218C73.2228 40.274 73.2135 40.3347 73.1948 40.4C73.1855 40.456 73.1621 40.512 73.1248 40.568L69.8768 45.09L70.0588 44.404V48.926C70.0588 49.0847 70.0028 49.22 69.8908 49.332C69.7881 49.444 69.6621 49.5 69.5128 49.5C69.3448 49.5 69.2048 49.444 69.0928 49.332C68.9901 49.22 68.9388 49.0847 68.9388 48.926V44.516L69.0368 44.88L65.8868 40.624C65.8308 40.5493 65.7888 40.4793 65.7608 40.414C65.7421 40.3393 65.7328 40.2693 65.7328 40.204C65.7328 40.0453 65.7981 39.9147 65.9288 39.812C66.0595 39.7 66.1901 39.644 66.3208 39.644C66.5075 39.644 66.6615 39.7327 66.7828 39.91L69.6808 43.886L69.4148 43.844L72.2008 39.924C72.3221 39.7373 72.4761 39.644 72.6628 39.644Z" fill="#ADADAD"/>
</svg>
