<svg width="111" height="44" viewBox="0 0 111 44" fill="none" xmlns="http://www.w3.org/2000/svg">
<path d="M13.2842 23.1274C12.6367 23.3788 11.9055 23.1045 11.5856 22.4875L5.64415 11.0465C4.95098 9.69067 5.47657 8.03774 6.83243 7.34458C6.91622 7.30649 6.99239 7.2684 7.07618 7.23032C8.60723 6.61333 10.2906 7.51215 10.7172 9.06606L10.7248 9.08891L14.0992 21.5125C14.2744 22.1752 13.924 22.876 13.2842 23.1274Z" fill="#F98500"/>
<path d="M12.9643 17.3611L11.2809 18.0238C10.9686 18.1381 10.6182 17.9857 10.4888 17.6734C10.3669 17.3611 10.5192 17.0031 10.8315 16.8813L12.6368 16.1729L12.9643 17.3611Z" fill="#FA6D00"/>
<path d="M13.6192 19.7453L12.172 20.2862C11.8597 20.3928 11.5169 20.2481 11.3798 19.9358C11.2579 19.6235 11.4102 19.2655 11.7302 19.1436L13.2993 18.5571L13.6192 19.7453Z" fill="#FA6D00"/>
<path d="M20.4518 11.9377C19.9415 11.5873 19.6825 10.9703 19.7968 10.3533C20.0786 8.93654 19.1645 7.55783 17.7401 7.26838C17.7249 7.26838 17.702 7.26076 17.6868 7.26076C17.1003 7.16174 16.6128 6.74279 16.43 6.1715C16.3843 6.03439 16.3309 5.89728 16.27 5.76779C15.6225 4.47287 14.0534 3.94728 12.7585 4.59474C11.5321 5.20412 10.9837 6.659 11.5016 7.92345C11.7682 8.57853 11.8977 9.17267 11.4483 9.8049C10.6104 10.9856 10.8923 12.6233 12.0729 13.4535C12.0806 13.4612 12.0958 13.4688 12.1034 13.4764C12.6138 13.8344 12.8575 14.459 12.7356 15.0684C12.4614 16.4852 13.3907 17.8639 14.8151 18.1381C16.0948 18.3819 17.3516 17.6582 17.7858 16.4319C19.0807 17.0793 20.6499 16.5461 21.2974 15.2588C21.8763 14.0934 21.5182 12.6842 20.4518 11.9377Z" fill="#598C44"/>
<path d="M26.3935 14.0325C26.0507 13.5145 26.0431 12.8442 26.3783 12.3186C27.1781 11.1151 26.8429 9.48501 25.6394 8.68521C25.6242 8.67759 25.6089 8.66236 25.5937 8.65474C24.8472 8.18247 24.9005 7.51216 24.8396 6.74283C24.733 5.30318 23.4685 4.22154 22.0289 4.32818C20.6654 4.43482 19.6066 5.56978 19.6066 6.94087C19.6066 7.64927 19.4999 8.24341 18.8525 8.66236C17.6337 9.43931 17.2757 11.0618 18.0603 12.2805C18.0679 12.2881 18.0755 12.3034 18.0831 12.311C18.4183 12.8366 18.4183 13.5069 18.0679 14.0249C17.2833 15.236 17.6261 16.8584 18.8372 17.6506C19.9265 18.359 21.3738 18.161 22.2269 17.186C23.1867 18.2676 24.8396 18.3743 25.9212 17.4221C26.8962 16.569 27.0943 15.1217 26.3935 14.0325Z" fill="#5F9548"/>
<path d="M30.4687 21.3906L23.1562 18.9531L27.1857 6.87229C27.6732 5.4174 29.1586 4.29006 30.7049 4.32815C31.6646 4.351 32.5635 4.53381 33.3176 5.14319C34.5363 6.11819 35.0162 7.74826 34.5211 9.226L30.4687 21.3906Z" fill="#FFB531"/>
<path d="M25.5938 15.2969V37.2344H7.3125V15.2969L9.14062 16.5156L10.9688 15.2969L12.7969 16.5156L14.625 15.2969L16.4531 16.5156L18.2812 15.2969L20.1094 16.5156L21.9375 15.2969L23.7656 16.5156L25.5938 15.2969Z" fill="#FFB531"/>
<path d="M25.5938 20.3471V37.2344H7.3125V33.5401C14.0232 31.2854 20.673 27.1797 25.5938 20.3471Z" fill="#FCAC1F"/>
<path d="M32.9062 15.2969V37.2344H25.5938V15.2969L27.4219 16.5156L29.25 15.2969L31.0781 16.5156L32.9062 15.2969Z" fill="#F98500"/>
<path d="M7.42676 39.6719C10.1191 39.6719 12.3018 37.4893 12.3018 34.7969C12.3018 32.1045 10.1191 29.9219 7.42676 29.9219C4.73437 29.9219 2.55176 32.1045 2.55176 34.7969C2.55176 37.4893 4.73437 39.6719 7.42676 39.6719Z" fill="#F35244"/>
<path d="M17.6719 26.875L18.2812 28.0938C17.5271 28.8479 17.2225 29.9447 17.4814 30.9883L17.6719 31.75H15.2344V30.8207C15.2344 29.1525 16.1789 27.6215 17.6719 26.875Z" fill="#5F9548"/>
<path d="M14.0992 39.6719C13.3299 39.6719 12.6443 39.1691 12.4234 38.4303L11.0524 33.8523C10.6715 32.5803 11.5094 31.1406 12.9186 31.1406C13.6041 31.1406 14.2363 31.4986 14.5867 32.0852L15.8436 34.1875V37.9275C15.8436 38.8873 15.059 39.6719 14.0992 39.6719Z" fill="#5F9548"/>
<path d="M18.8068 39.6719C19.5762 39.6719 20.2617 39.1691 20.4826 38.4303L21.8537 33.8523C22.2422 32.565 21.3891 31.1406 19.9875 31.1406C19.302 31.1406 18.6697 31.4986 18.3193 32.0852L17.0625 34.1875V37.9275C17.0625 38.8873 17.8471 39.6719 18.8068 39.6719Z" fill="#5F9548"/>
<path d="M16.4531 31.1406C17.4662 31.1406 18.2812 31.9557 18.2812 32.9688V37.8438C18.2812 38.8568 17.4662 39.6719 16.4531 39.6719C15.44 39.6719 14.625 38.8568 14.625 37.8438V32.9688C14.625 31.9557 15.44 31.1406 16.4531 31.1406Z" fill="#5F9548"/>
<path d="M33.6983 4.67092C32.571 3.76448 31.0247 3.49026 29.5546 3.91682C28.1226 4.33577 27.0485 5.34885 26.6067 6.68186L24.1464 14.0705L23.8569 13.644L22.8362 14.3219V11.8615L24.5272 10.7342L23.8493 9.72112L22.8286 10.399V7.60354H21.6099V10.3914L20.5968 9.7135L19.9189 10.7266L21.6099 11.8539V14.3143L20.5968 13.6364L19.9189 14.6494L20.8558 15.274L20.1017 15.7768L18.6087 14.7865C18.5401 14.7408 18.4716 14.7104 18.3954 14.6951C18.4411 14.5809 18.5021 14.4666 18.5706 14.36C19.0429 13.6364 19.0429 12.7071 18.5782 11.9758C18.1517 11.3283 18.1669 10.361 18.6087 9.7135C18.7991 9.43928 19.5761 8.88323 19.7817 8.60901C20.1855 8.07581 20.2312 7.46643 20.2769 6.93323C20.3073 6.51428 20.3378 6.14866 20.5206 5.86682C21.1071 4.92991 22.3487 4.64807 23.2857 5.23459C23.4837 5.35647 23.6513 5.51643 23.796 5.69163C24.1235 6.10295 24.154 6.51428 24.1921 7.07034C24.2073 7.26077 24.2226 7.46643 24.2454 7.67971L25.4565 7.52737C25.4337 7.34456 25.4185 7.16174 25.4108 6.98655C25.3651 6.32385 25.3118 5.64592 24.7558 4.93752C23.6513 3.53596 21.6251 3.29983 20.2235 4.3967C19.9341 4.62522 19.6827 4.89944 19.4847 5.21174C19.1495 5.74495 19.1038 6.32385 19.0581 6.82659C19.0505 6.94084 19.0429 7.04748 19.0276 7.15413C18.6544 6.90276 18.2278 6.72756 17.7784 6.64377C17.4128 6.58284 17.1081 6.32385 16.9939 5.97346C16.7272 5.14319 16.1483 4.45764 15.3714 4.06155C14.6097 3.65784 13.7185 3.58167 12.8958 3.84827C11.6847 4.25198 10.8011 5.38694 10.6944 6.68948C10.6563 7.18459 10.7782 7.61877 10.9001 8.00725C10.3288 7.07034 9.33096 6.4762 8.23408 6.40764L8.25693 3.70354L7.03818 3.69592L7.02295 5.45549L6.2917 3.58167L5.17959 4.04631L5.91084 5.92014L4.70732 4.64045L3.82373 5.47073L5.67471 7.4512C4.66924 8.48713 4.43311 10.041 5.10342 11.3207L6.36787 13.7582L7.44951 13.1946L6.18506 10.7571C5.64424 9.7135 6.04795 8.4262 7.0915 7.88538C8.13506 7.34455 9.42236 7.74827 9.96319 8.79182C10.0317 8.92893 10.0851 9.06604 10.1308 9.21838L10.1536 9.29456L8.18838 10.0639L8.63018 11.1989L10.4735 10.4828V10.4905C10.3593 10.9246 10.3288 11.374 10.405 11.8235L9.07959 12.3414L9.52139 13.4764L10.8315 12.966C11.1362 13.4764 11.6618 13.9487 11.6618 13.9487L9.96319 14.6114L10.1612 15.1065L9.14815 15.7844L7.65518 14.7942C7.37334 14.6037 7.0001 14.6799 6.80967 14.9617C6.74111 15.0608 6.71064 15.1826 6.71064 15.2969V28.0938H7.9294V16.4319L8.81299 17.0184C9.01865 17.1555 9.28525 17.1555 9.49092 17.0184L10.9839 16.0281L12.4769 17.0184C12.6825 17.1555 12.9491 17.1555 13.1548 17.0184L14.6478 16.0281L16.1407 17.0184C16.3464 17.1555 16.613 17.1555 16.8187 17.0184L18.3116 16.0281L19.8046 17.0184C20.0103 17.1555 20.2769 17.1555 20.4825 17.0184L21.9755 16.0281L23.4685 17.0184C23.6741 17.1555 23.9407 17.1555 24.1464 17.0184L25.03 16.4319V36.625H22.5925V37.8438H32.9519C33.287 37.8438 33.5612 37.5695 33.5612 37.2344V15.2969C33.5612 15.1141 33.4774 14.9465 33.3403 14.8322L35.1456 9.42405C35.6712 7.70256 35.1075 5.80588 33.6983 4.67092ZM17.5728 12.6614C17.6261 12.7451 17.6642 12.8365 17.687 12.9356L17.2681 13.5526L16.3388 11.2674L17.1538 10.0639C16.9405 10.9399 17.0776 11.9149 17.5728 12.6614ZM13.3224 15.4416C13.4823 14.7942 13.3528 14.1162 12.9796 13.5678C12.6216 13.0498 12.0503 12.6918 11.7608 12.1281C11.6085 11.8311 11.5476 11.4883 11.5856 11.1531C11.6771 10.4067 12.2407 9.78206 12.3245 9.03557C12.3855 8.48713 12.1646 7.95393 12.0503 7.41311C11.7837 6.21721 12.5378 5.00608 13.8251 4.94514C14.4497 4.92229 15.0438 5.18889 15.4399 5.66877C15.7903 6.10295 15.9503 6.67424 16.3007 7.11604C16.5597 7.44358 16.9101 7.67971 17.3062 7.79397C17.6946 7.90823 18.1517 7.92346 18.4106 8.23577C17.9612 8.55569 17.5956 8.97463 17.3442 9.46975L16.4759 8.89084L15.7903 9.88108L14.7392 7.31409L13.6194 7.77112L14.663 10.3457L13.4747 10.1172L13.231 11.3055L15.1886 11.7473L16.1407 13.9867L14.9524 13.7582L14.8077 14.4742C14.8001 14.4819 13.6347 15.2131 13.3224 15.4416ZM15.4399 15.1065L16.6968 15.3655L16.7806 15.5711L16.453 15.7844L15.4399 15.1065ZM23.3009 15.4721L23.7731 15.1522L23.598 15.6701L23.3009 15.4721ZM26.203 16.4319L27.0866 17.0184C27.2923 17.1555 27.5589 17.1555 27.7646 17.0184L28.6481 16.4319V33.3192L26.2106 35.7567V16.4319H26.203ZM32.2968 16.4319V35.7567L29.8593 33.3192V16.4319L30.7429 17.0184C30.9485 17.1555 31.2151 17.1555 31.4208 17.0184L32.2968 16.4319ZM29.2499 34.4389L31.436 36.625H27.0638L29.2499 34.4389ZM33.9421 9.03557L31.8702 15.2512L31.078 15.7768L29.5851 14.7865C29.3794 14.6494 29.1128 14.6494 28.9071 14.7865L27.4142 15.7768C27.4142 15.7768 25.8907 14.7637 25.8755 14.7561C25.6774 14.6494 25.4337 14.6647 25.2509 14.7865L25.1595 14.8475L27.7569 7.06272C28.0769 6.11057 28.8538 5.39456 29.8974 5.08225C30.979 4.76233 32.114 4.96038 32.9366 5.61545C33.9497 6.43811 34.3534 7.80159 33.9421 9.03557Z" fill="black"/>
<path d="M28.5288 8.61169L32.1864 8.00333L32.3863 9.20501L28.7287 9.81338L28.5288 8.61169Z" fill="black"/>
<path d="M27.3091 12.2661L30.9667 11.6577L31.1666 12.8594L27.509 13.4677L27.3091 12.2661Z" fill="black"/>
<path d="M19.9949 30.5313C19.3246 30.5237 18.6771 30.7903 18.2049 31.2701C18.1973 31.2625 18.1896 31.2549 18.182 31.2397L18.083 30.836C18.083 30.8283 18.083 30.8283 18.0754 30.8207C17.8393 29.9904 18.3115 28.9393 18.7229 28.528C18.9057 28.3451 18.9514 28.0557 18.8371 27.8272L18.2277 26.6084C18.0754 26.3037 17.7098 26.1819 17.4127 26.3342C15.7064 27.1797 14.6324 28.924 14.64 30.8207V31.1483C14.4953 31.0416 14.3354 30.9426 14.1754 30.8512C12.9947 30.219 11.4637 30.6151 10.7629 31.7272C10.3592 32.3746 10.2525 33.2506 10.4811 34.0199L11.2732 36.6631C10.2221 38.7731 7.6627 39.6338 5.55273 38.5903C3.46563 37.5543 2.59727 35.033 3.60273 32.9307C3.61797 32.9002 3.6332 32.8697 3.64844 32.8393L3.67129 34.9112L4.89004 34.8959L4.85195 32.3594L7.28184 32.4737L7.34277 31.2549L5.22519 31.1559C5.85742 30.7674 6.58867 30.5541 7.32754 30.5313C8.21113 30.5084 9.07949 30.7598 9.81074 31.2549L10.4887 30.2418C9.11758 29.3201 7.40371 29.0688 5.82695 29.5487L6.08594 28.9393L4.96621 28.4594L4.12832 30.4094C4.06738 30.4551 3.99883 30.5084 3.93789 30.5617L2.0793 28.7031L1.21855 29.5639L3.09238 31.4377C3.0543 31.491 3.01621 31.5444 2.97812 31.5977L0.982422 32.4508L1.4623 33.5705L2.16309 33.2658C1.31758 36.1756 2.99336 39.2149 5.90312 40.0604C7.82266 40.6164 9.89453 40.0832 11.3113 38.6664C11.4561 38.5217 11.5932 38.3617 11.7227 38.2018L11.8445 38.5979C12.2178 39.8471 13.5279 40.5479 14.7771 40.1746C14.9523 40.1213 15.1123 40.0528 15.2723 39.9613C16.0111 40.3727 16.91 40.3727 17.6488 39.9613C18.7762 40.6088 20.2158 40.2127 20.8633 39.0854C20.9547 38.933 21.0232 38.7654 21.0766 38.5903L22.4477 34.0123C22.5314 33.7076 22.5695 33.3877 22.5543 33.0678C22.5467 31.6738 21.4041 30.5313 19.9949 30.5313ZM17.4203 27.7358L17.5574 28.01C17.0775 28.6727 16.7348 29.6401 16.7957 30.5541C16.6205 30.5237 16.1406 30.5008 15.8512 30.6074C15.9121 29.4572 16.491 28.4061 17.4203 27.7358ZM13.01 38.2551L11.6389 33.6772C11.5094 33.243 11.5703 32.725 11.7836 32.3822C12.134 31.8186 12.9795 31.6053 13.5889 31.9328C13.8783 32.0852 13.9926 32.1918 14.1068 32.3365C14.0535 32.5422 14.023 32.7555 14.023 32.9688V37.8438C14.023 38.2627 14.1297 38.674 14.3354 39.0397C13.7488 39.1615 13.1775 38.8188 13.01 38.2551ZM15.2342 37.8438V32.9688C15.2342 32.2985 15.7826 31.75 16.4529 31.75C17.1232 31.75 17.6717 32.2985 17.6717 32.9688V37.8438C17.6717 38.5141 17.1232 39.0625 16.4529 39.0625C15.7826 39.0625 15.2342 38.5141 15.2342 37.8438ZM21.2746 33.6772L19.9035 38.2551C19.7359 38.8188 19.157 39.1615 18.5781 39.0397C18.7838 38.674 18.8904 38.2627 18.8904 37.8438V32.9688C18.8904 32.7783 18.8676 32.5955 18.8219 32.4127C18.9818 32.169 19.3475 31.75 19.9873 31.75C20.7262 31.75 21.3203 32.3518 21.3203 33.083C21.3355 33.2811 21.3203 33.4867 21.2746 33.6772Z" fill="black"/>
<path d="M49.898 6.279C50.094 6.279 50.297 6.335 50.507 6.447C50.731 6.545 50.899 6.678 51.011 6.846L56.114 14.7L55.064 14.658L60.293 6.846C60.559 6.468 60.902 6.279 61.322 6.279C61.658 6.279 61.959 6.398 62.225 6.636C62.491 6.874 62.624 7.182 62.624 7.56V19.719C62.624 20.083 62.505 20.391 62.267 20.643C62.029 20.881 61.714 21 61.322 21C60.93 21 60.608 20.881 60.356 20.643C60.118 20.391 59.999 20.083 59.999 19.719V9.828L60.818 10.017L56.534 16.548C56.408 16.702 56.247 16.835 56.051 16.947C55.869 17.059 55.68 17.108 55.484 17.094C55.302 17.108 55.113 17.059 54.917 16.947C54.735 16.835 54.581 16.702 54.455 16.548L50.444 10.206L50.99 9.093V19.719C50.99 20.083 50.878 20.391 50.654 20.643C50.43 20.881 50.136 21 49.772 21C49.422 21 49.135 20.881 48.911 20.643C48.687 20.391 48.575 20.083 48.575 19.719V7.56C48.575 7.21 48.701 6.909 48.953 6.657C49.219 6.405 49.534 6.279 49.898 6.279ZM67.1251 6.3C67.4611 6.3 67.7551 6.426 68.0071 6.678C68.2731 6.916 68.4061 7.217 68.4061 7.581V19.719C68.4061 20.083 68.2731 20.391 68.0071 20.643C67.7411 20.881 67.4331 21 67.0831 21C66.6911 21 66.3761 20.881 66.1381 20.643C65.9001 20.391 65.7811 20.083 65.7811 19.719V7.581C65.7811 7.217 65.9071 6.916 66.1591 6.678C66.4111 6.426 66.7331 6.3 67.1251 6.3ZM76.4281 6.3C76.8201 6.3 77.1351 6.426 77.3731 6.678C77.6111 6.916 77.7301 7.217 77.7301 7.581V19.719C77.7301 20.083 77.6041 20.391 77.3521 20.643C77.1141 20.881 76.7921 21 76.3861 21C76.0501 21 75.7491 20.881 75.4831 20.643C75.2311 20.391 75.1051 20.083 75.1051 19.719V7.581C75.1051 7.217 75.2381 6.916 75.5041 6.678C75.7701 6.426 76.0781 6.3 76.4281 6.3ZM67.0621 12.411H76.4281V14.826H67.0621V12.411Z" fill="#3BB77E"/>
<path d="M52.698 40.14C51.9793 40.14 51.312 40.014 50.696 39.762C50.0893 39.5007 49.5527 39.1413 49.086 38.684C48.6287 38.2267 48.2693 37.6947 48.008 37.088C47.756 36.472 47.63 35.8093 47.63 35.1C47.63 34.3813 47.756 33.7187 48.008 33.112C48.2693 32.496 48.6287 31.9593 49.086 31.502C49.5527 31.0447 50.0893 30.69 50.696 30.438C51.312 30.186 51.9793 30.06 52.698 30.06C53.174 30.06 53.6313 30.116 54.07 30.228C54.518 30.3307 54.924 30.494 55.288 30.718C55.3813 30.7647 55.4467 30.83 55.484 30.914C55.5307 30.998 55.554 31.0867 55.554 31.18C55.554 31.3387 55.498 31.474 55.386 31.586C55.2833 31.698 55.162 31.754 55.022 31.754C54.966 31.754 54.91 31.7447 54.854 31.726C54.8073 31.7073 54.756 31.6887 54.7 31.67C54.4107 31.5207 54.098 31.404 53.762 31.32C53.426 31.2267 53.0713 31.18 52.698 31.18C51.9607 31.18 51.298 31.3527 50.71 31.698C50.1313 32.0433 49.674 32.51 49.338 33.098C49.002 33.686 48.834 34.3533 48.834 35.1C48.834 35.8373 49.002 36.5047 49.338 37.102C49.674 37.69 50.1313 38.1567 50.71 38.502C51.298 38.8473 51.9607 39.02 52.698 39.02C53.0713 39.02 53.454 38.9687 53.846 38.866C54.2473 38.7633 54.588 38.6327 54.868 38.474L54.77 38.81V35.856L54.994 36.052H52.852C52.6933 36.052 52.558 36.0007 52.446 35.898C52.3433 35.786 52.292 35.6507 52.292 35.492C52.292 35.3333 52.3433 35.2027 52.446 35.1C52.558 34.988 52.6933 34.932 52.852 34.932H55.4C55.568 34.932 55.7033 34.988 55.806 35.1C55.9087 35.212 55.96 35.3473 55.96 35.506V38.74C55.96 38.852 55.932 38.95 55.876 39.034C55.8293 39.118 55.764 39.188 55.68 39.244C55.26 39.5147 54.7933 39.734 54.28 39.902C53.776 40.0607 53.2487 40.14 52.698 40.14ZM58.6104 40C58.433 40 58.279 39.944 58.1484 39.832C58.027 39.72 57.9664 39.5847 57.9664 39.426V30.76C57.9664 30.6013 58.0177 30.4707 58.1204 30.368C58.2324 30.256 58.3677 30.2 58.5264 30.2H62.3904C62.913 30.2 63.3844 30.3213 63.8044 30.564C64.2244 30.7973 64.5557 31.124 64.7984 31.544C65.0504 31.9547 65.1764 32.4307 65.1764 32.972C65.1764 33.364 65.1017 33.7327 64.9524 34.078C64.803 34.414 64.5977 34.708 64.3364 34.96C64.075 35.2027 63.7764 35.3893 63.4404 35.52L63.1324 35.296C63.4497 35.3707 63.7344 35.506 63.9864 35.702C64.2384 35.8887 64.4437 36.1313 64.6024 36.43C64.761 36.7193 64.845 37.06 64.8544 37.452C64.873 37.7973 64.8964 38.0727 64.9244 38.278C64.9524 38.4833 64.9944 38.6467 65.0504 38.768C65.1064 38.88 65.1857 38.9687 65.2884 39.034C65.419 39.118 65.503 39.23 65.5404 39.37C65.587 39.51 65.5637 39.6453 65.4704 39.776C65.4144 39.86 65.335 39.9207 65.2324 39.958C65.1297 39.986 65.027 39.9953 64.9244 39.986C64.8217 39.9767 64.733 39.9487 64.6584 39.902C64.509 39.818 64.3644 39.6967 64.2244 39.538C64.0844 39.37 63.9677 39.132 63.8744 38.824C63.781 38.516 63.7344 38.096 63.7344 37.564C63.7344 37.2653 63.6877 37.018 63.5944 36.822C63.501 36.626 63.375 36.4673 63.2164 36.346C63.0577 36.2247 62.8804 36.1407 62.6844 36.094C62.4884 36.0473 62.2877 36.024 62.0824 36.024H58.9604L59.1284 35.772V39.426C59.1284 39.5847 59.0817 39.72 58.9884 39.832C58.895 39.944 58.769 40 58.6104 40ZM58.9604 35.016H62.3904C62.661 34.9973 62.913 34.904 63.1464 34.736C63.389 34.568 63.585 34.3347 63.7344 34.036C63.893 33.728 63.9724 33.3827 63.9724 33C63.9724 32.5053 63.8137 32.0947 63.4964 31.768C63.1884 31.4413 62.7964 31.278 62.3204 31.278H59.0164L59.1284 31.012V35.268L58.9604 35.016ZM76.1246 35.1C76.1246 35.8187 76.0079 36.486 75.7746 37.102C75.5413 37.7087 75.2146 38.2407 74.7946 38.698C74.3746 39.1553 73.8753 39.51 73.2966 39.762C72.7179 40.014 72.0879 40.14 71.4066 40.14C70.7159 40.14 70.0813 40.014 69.5026 39.762C68.9333 39.51 68.4386 39.1553 68.0186 38.698C67.5986 38.2407 67.2719 37.7087 67.0386 37.102C66.8053 36.486 66.6886 35.8187 66.6886 35.1C66.6886 34.372 66.8053 33.7047 67.0386 33.098C67.2719 32.482 67.5986 31.95 68.0186 31.502C68.4386 31.0447 68.9333 30.69 69.5026 30.438C70.0813 30.186 70.7159 30.06 71.4066 30.06C72.0879 30.06 72.7179 30.186 73.2966 30.438C73.8753 30.69 74.3746 31.0447 74.7946 31.502C75.2146 31.95 75.5413 32.482 75.7746 33.098C76.0079 33.7047 76.1246 34.372 76.1246 35.1ZM74.9206 35.1C74.9206 34.3347 74.7666 33.658 74.4586 33.07C74.1599 32.482 73.7493 32.02 73.2266 31.684C72.7039 31.348 72.0973 31.18 71.4066 31.18C70.7159 31.18 70.1046 31.348 69.5726 31.684C69.0499 32.02 68.6393 32.482 68.3406 33.07C68.0419 33.658 67.8926 34.3347 67.8926 35.1C67.8926 35.856 68.0419 36.5327 68.3406 37.13C68.6393 37.718 69.0499 38.18 69.5726 38.516C70.1046 38.852 70.7159 39.02 71.4066 39.02C72.0973 39.02 72.7039 38.852 73.2266 38.516C73.7493 38.18 74.1599 37.718 74.4586 37.13C74.7666 36.5327 74.9206 35.856 74.9206 35.1ZM85.038 30.844C85.1967 30.928 85.2853 31.054 85.304 31.222C85.332 31.39 85.29 31.544 85.178 31.684C85.094 31.8053 84.9867 31.8707 84.856 31.88C84.7253 31.8893 84.5947 31.8613 84.464 31.796C84.156 31.6093 83.8247 31.4647 83.47 31.362C83.1153 31.25 82.742 31.194 82.35 31.194C81.7993 31.194 81.2953 31.292 80.838 31.488C80.3807 31.6747 79.984 31.9407 79.648 32.286C79.312 32.6313 79.0507 33.042 78.864 33.518C78.6773 33.994 78.584 34.5213 78.584 35.1C78.584 35.716 78.682 36.2667 78.878 36.752C79.074 37.2373 79.34 37.6527 79.676 37.998C80.0213 38.334 80.418 38.5907 80.866 38.768C81.3233 38.9453 81.818 39.034 82.35 39.034C82.7327 39.034 83.1013 38.9827 83.456 38.88C83.8107 38.7773 84.1467 38.628 84.464 38.432C84.5947 38.3667 84.7253 38.3433 84.856 38.362C84.9867 38.3807 85.0987 38.446 85.192 38.558C85.304 38.7073 85.346 38.866 85.318 39.034C85.29 39.1927 85.2013 39.3093 85.052 39.384C84.8187 39.524 84.5527 39.6547 84.254 39.776C83.9553 39.888 83.6427 39.9767 83.316 40.042C82.9987 40.1073 82.6767 40.14 82.35 40.14C81.678 40.14 81.0433 40.0233 80.446 39.79C79.8487 39.5567 79.3213 39.2207 78.864 38.782C78.4067 38.3433 78.0427 37.816 77.772 37.2C77.5107 36.5747 77.38 35.8747 77.38 35.1C77.38 34.372 77.506 33.7047 77.758 33.098C78.01 32.4913 78.36 31.964 78.808 31.516C79.2653 31.068 79.7927 30.718 80.39 30.466C80.9967 30.214 81.65 30.088 82.35 30.088C82.8353 30.088 83.3067 30.1533 83.764 30.284C84.2307 30.4147 84.6553 30.6013 85.038 30.844ZM87.5654 30.2H92.5494C92.7081 30.2 92.8434 30.2513 92.9554 30.354C93.0674 30.4567 93.1234 30.5873 93.1234 30.746C93.1234 30.9047 93.0674 31.0353 92.9554 31.138C92.8434 31.2313 92.7081 31.278 92.5494 31.278H88.0414L88.1674 31.04V34.582L88.0274 34.428H91.9194C92.0781 34.428 92.2134 34.4793 92.3254 34.582C92.4374 34.6847 92.4934 34.8153 92.4934 34.974C92.4934 35.1327 92.4374 35.2633 92.3254 35.366C92.2134 35.4593 92.0781 35.506 91.9194 35.506H88.0694L88.1674 35.38V39.006L88.0834 38.908H92.5494C92.7081 38.908 92.8434 38.964 92.9554 39.076C93.0674 39.188 93.1234 39.314 93.1234 39.454C93.1234 39.6127 93.0674 39.7433 92.9554 39.846C92.8434 39.9487 92.7081 40 92.5494 40H87.5654C87.4068 40 87.2714 39.944 87.1594 39.832C87.0568 39.72 87.0054 39.5847 87.0054 39.426V30.76C87.0054 30.6013 87.0568 30.4707 87.1594 30.368C87.2714 30.256 87.4068 30.2 87.5654 30.2ZM95.6338 40C95.4565 40 95.3025 39.944 95.1718 39.832C95.0505 39.72 94.9898 39.5847 94.9898 39.426V30.76C94.9898 30.6013 95.0411 30.4707 95.1438 30.368C95.2558 30.256 95.3911 30.2 95.5498 30.2H99.4138C99.9365 30.2 100.408 30.3213 100.828 30.564C101.248 30.7973 101.579 31.124 101.822 31.544C102.074 31.9547 102.2 32.4307 102.2 32.972C102.2 33.364 102.125 33.7327 101.976 34.078C101.826 34.414 101.621 34.708 101.36 34.96C101.098 35.2027 100.8 35.3893 100.464 35.52L100.156 35.296C100.473 35.3707 100.758 35.506 101.01 35.702C101.262 35.8887 101.467 36.1313 101.626 36.43C101.784 36.7193 101.868 37.06 101.878 37.452C101.896 37.7973 101.92 38.0727 101.948 38.278C101.976 38.4833 102.018 38.6467 102.074 38.768C102.13 38.88 102.209 38.9687 102.312 39.034C102.442 39.118 102.526 39.23 102.564 39.37C102.61 39.51 102.587 39.6453 102.494 39.776C102.438 39.86 102.358 39.9207 102.256 39.958C102.153 39.986 102.05 39.9953 101.948 39.986C101.845 39.9767 101.756 39.9487 101.682 39.902C101.532 39.818 101.388 39.6967 101.248 39.538C101.108 39.37 100.991 39.132 100.898 38.824C100.804 38.516 100.758 38.096 100.758 37.564C100.758 37.2653 100.711 37.018 100.618 36.822C100.524 36.626 100.398 36.4673 100.24 36.346C100.081 36.2247 99.9038 36.1407 99.7078 36.094C99.5118 36.0473 99.3111 36.024 99.1058 36.024H95.9838L96.1518 35.772V39.426C96.1518 39.5847 96.1051 39.72 96.0118 39.832C95.9185 39.944 95.7925 40 95.6338 40ZM95.9838 35.016H99.4138C99.6845 34.9973 99.9365 34.904 100.17 34.736C100.412 34.568 100.608 34.3347 100.758 34.036C100.916 33.728 100.996 33.3827 100.996 33C100.996 32.5053 100.837 32.0947 100.52 31.768C100.212 31.4413 99.8198 31.278 99.3438 31.278H96.0398L96.1518 31.012V35.268L95.9838 35.016ZM110.141 30.144C110.3 30.144 110.431 30.2047 110.533 30.326C110.645 30.438 110.701 30.5687 110.701 30.718C110.701 30.774 110.692 30.8347 110.673 30.9C110.664 30.956 110.641 31.012 110.603 31.068L107.355 35.59L107.537 34.904V39.426C107.537 39.5847 107.481 39.72 107.369 39.832C107.267 39.944 107.141 40 106.991 40C106.823 40 106.683 39.944 106.571 39.832C106.469 39.72 106.417 39.5847 106.417 39.426V35.016L106.515 35.38L103.365 31.124C103.309 31.0493 103.267 30.9793 103.239 30.914C103.221 30.8393 103.211 30.7693 103.211 30.704C103.211 30.5453 103.277 30.4147 103.407 30.312C103.538 30.2 103.669 30.144 103.799 30.144C103.986 30.144 104.14 30.2327 104.261 30.41L107.159 34.386L106.893 34.344L109.679 30.424C109.801 30.2373 109.955 30.144 110.141 30.144Z" fill="#ADADAD"/>
</svg>
