<svg width="18" height="18" viewBox="0 0 18 18" fill="none" xmlns="http://www.w3.org/2000/svg">
<path fill-rule="evenodd" clip-rule="evenodd" d="M1.26436 2.40656L1.32482 2.34338C2.931 0.737053 3.97697 0.31128 5.09298 0.953039C5.41401 1.13764 5.71497 1.39605 6.12421 1.8117L7.37952 3.11338C8.07288 3.86996 8.2305 4.59567 8.00473 5.44556L7.97363 5.55808L7.93911 5.66995L7.77129 6.16231C7.41212 7.26645 7.56207 7.88942 8.83998 9.16701C10.1689 10.4956 10.7892 10.6043 11.9785 10.1887L12.1905 10.115L12.4468 10.0318L12.559 10.0006C13.4624 9.75961 14.2255 9.95194 15.0348 10.7607L16.0462 11.7377L16.3439 12.0305C16.674 12.3671 16.8922 12.6338 17.0533 12.9158C17.6911 14.0314 17.2649 15.0768 15.6124 16.7231L15.4552 16.8824C15.2084 17.1202 14.9779 17.2906 14.6393 17.4513C14.0708 17.7212 13.3993 17.823 12.6189 17.7145C10.696 17.4471 8.25723 15.9299 5.167 12.8404C4.91544 12.5889 4.67451 12.3423 4.44397 12.1004L3.99666 11.623C-0.194884 7.06906 -0.564664 4.27159 1.15308 2.51711L1.26436 2.40656ZM5.11244 2.56746C4.84095 2.2998 4.64373 2.13663 4.46986 2.03665C4.08526 1.81549 3.67001 1.90897 2.90151 2.57042L2.66004 2.78614C2.61792 2.82502 2.57483 2.86538 2.53075 2.90726L2.25385 3.17695L2.22891 3.20812L2.04119 3.39671C1.58756 3.86006 1.37269 4.42555 1.55785 5.39808C1.86169 6.99393 3.25245 9.15879 6.05077 11.9564C8.9665 14.8714 11.1881 16.2534 12.7911 16.4764C13.7256 16.6063 14.2023 16.38 14.6884 15.882L15.0591 15.5079C15.2329 15.326 15.3815 15.1611 15.5069 15.0105L15.678 14.7949C16.1152 14.2126 16.1551 13.8632 15.9681 13.5361C15.897 13.4116 15.7935 13.2752 15.6428 13.1084L15.4385 12.8925L15.3175 12.7715L14.0415 11.5393C13.6151 11.1461 13.3237 11.0903 12.8812 11.2084L12.7535 11.2451L12.2249 11.4245C10.6915 11.9198 9.58526 11.6796 7.95621 10.051C6.26901 8.36423 6.07113 7.23783 6.63645 5.616L6.67271 5.51178L6.773 5.20963L6.82229 5.01705C6.90971 4.59791 6.8099 4.30567 6.35934 3.85503C6.34078 3.83647 6.32005 3.81557 6.29749 3.79269L5.11244 2.56746Z" fill="#3BB77E"/>
</svg>
