<svg width="21" height="20" viewBox="0 0 21 20" fill="none" xmlns="http://www.w3.org/2000/svg">
<path fill-rule="evenodd" clip-rule="evenodd" d="M16.4706 3.57739C16.796 3.90283 16.796 4.43047 16.4706 4.7559L4.80394 16.4226C4.4785 16.748 3.95086 16.748 3.62543 16.4226C3.29999 16.0971 3.29999 15.5695 3.62543 15.2441L15.2921 3.57739C15.6175 3.25195 16.1452 3.25195 16.4706 3.57739Z" fill="#333333"/>
<path fill-rule="evenodd" clip-rule="evenodd" d="M5.46452 4.16667C4.77416 4.16667 4.21452 4.72631 4.21452 5.41667C4.21452 6.10702 4.77416 6.66667 5.46452 6.66667C6.15487 6.66667 6.71452 6.10702 6.71452 5.41667C6.71452 4.72631 6.15487 4.16667 5.46452 4.16667ZM2.54785 5.41667C2.54785 3.80584 3.85369 2.5 5.46452 2.5C7.07535 2.5 8.38118 3.80584 8.38118 5.41667C8.38118 7.0275 7.07535 8.33333 5.46452 8.33333C3.85369 8.33333 2.54785 7.0275 2.54785 5.41667Z" fill="#333333"/>
<path fill-rule="evenodd" clip-rule="evenodd" d="M14.631 13.3334C13.9407 13.3334 13.381 13.893 13.381 14.5834C13.381 15.2737 13.9407 15.8334 14.631 15.8334C15.3214 15.8334 15.881 15.2737 15.881 14.5834C15.881 13.893 15.3214 13.3334 14.631 13.3334ZM11.7144 14.5834C11.7144 12.9725 13.0202 11.6667 14.631 11.6667C16.2419 11.6667 17.5477 12.9725 17.5477 14.5834C17.5477 16.1942 16.2419 17.5 14.631 17.5C13.0202 17.5 11.7144 16.1942 11.7144 14.5834Z" fill="#333333"/>
</svg>
