<svg width="76" height="65" viewBox="0 0 76 65" fill="none" xmlns="http://www.w3.org/2000/svg">
<path d="M72.2286 12.5237C68.2551 9.71851 63.9301 7.381 59.4894 5.51078C55.0479 3.64058 50.3731 2.23826 45.6985 1.30325C41.0239 0.368145 36.1143 -0.0990033 31.323 0.0175802C26.4142 0.0175802 21.6223 0.602126 16.8302 1.6538C13.9083 2.23834 11.571 4.57569 10.9864 7.61425C10.5193 10.0691 11.2204 12.4064 12.7392 14.1591C9.70068 14.9776 6.77879 16.0293 3.8569 17.3149C1.51959 18.3666 0 20.7039 0 23.2754C0 26.8983 2.92189 29.7037 6.42837 29.7037C7.01291 29.7037 7.48006 30.1709 7.48006 30.7554V62.4287C7.48006 63.831 8.64915 65 10.0513 65H53.1784C54.5807 65 55.7497 63.8309 55.7497 62.4287V60.0914H55.9837C56.2177 60.0914 56.4508 60.208 56.6848 60.208C58.4376 60.208 59.9573 59.0389 60.3077 57.2861L66.3855 26.1972C66.8526 26.3138 67.3206 26.3138 67.7877 26.3138C71.2942 26.3138 74.4501 23.859 75.2678 20.236C75.9689 17.1992 74.6833 14.16 72.2286 12.5237ZM19.1671 42.0933C18.3486 42.0933 17.6475 41.3921 17.6475 40.5736C17.6475 39.7551 18.3486 39.054 19.1671 39.054C19.9856 39.054 20.6867 39.7551 20.6867 40.5736C20.6859 41.3922 19.9848 42.0933 19.1671 42.0933ZM21.2704 27.6011C21.2704 26.5494 22.089 25.6143 23.2572 25.6143C24.3089 25.6143 25.244 26.4329 25.244 27.6011C25.244 28.7702 24.4255 29.5879 23.2572 29.5879C22.2055 29.4705 21.2704 28.6528 21.2704 27.6011ZM25.1273 53.1969C24.0757 53.1969 23.2571 52.3783 23.2571 51.3267C23.2571 50.275 24.0757 49.4565 25.1273 49.4565C26.179 49.4565 26.9975 50.275 26.9975 51.3267C26.9975 52.3784 26.179 53.1969 25.1273 53.1969ZM44.5289 55.5342C43.5938 55.5342 42.8927 54.833 42.8927 53.898C42.8927 52.9629 43.5938 52.2617 44.5289 52.2617C45.464 52.2617 46.1651 52.9629 46.1651 53.898C46.1651 54.833 45.464 55.5342 44.5289 55.5342ZM42.6587 39.1712C42.6587 38.2361 43.3598 37.535 44.2949 37.535C45.23 37.535 45.9311 38.2361 45.9311 39.1712C45.9311 40.1063 45.23 40.8074 44.2949 40.8074C43.3598 40.8074 42.6587 40.1063 42.6587 39.1712ZM45.9312 26.8999C44.8795 26.8999 44.061 26.0813 44.061 25.0297C44.061 23.978 44.8796 23.1595 45.9312 23.1595C46.9829 23.1595 47.8014 23.978 47.8014 25.0297C47.8014 26.0814 46.9829 26.8999 45.9312 26.8999ZM57.0342 53.4306V30.7568C58.9044 30.7568 60.5407 30.0556 61.8263 29.0039L57.0342 53.4306ZM71.4105 19.4198C71.06 21.29 69.1897 22.5757 67.3195 22.225C66.3844 21.9911 65.3327 22.225 64.5142 22.6922C64.2803 19.887 62.5275 17.433 59.9561 16.3813C53.0606 13.3428 45.6973 11.4725 38.2172 10.8882C36.1139 10.6542 33.893 10.5376 31.7889 10.5376C26.7636 10.5376 21.7376 11.1221 16.7123 12.1738C15.4266 11.4727 14.7255 9.95297 15.0761 8.55088C15.3101 7.14862 16.3618 6.09607 17.764 5.86295C22.2055 4.92784 26.7637 4.34331 31.4385 4.34331C35.9966 4.34331 40.5548 4.69388 44.9963 5.62899C49.4377 6.44751 53.7619 7.84983 57.9695 9.60255C62.177 11.3554 66.268 13.5761 70.0076 16.1474C71.0602 16.6153 71.6437 18.0175 71.4105 19.4198Z" fill="black"/>
</svg>
