<svg width="47" height="65" viewBox="0 0 47 65" fill="none" xmlns="http://www.w3.org/2000/svg">
<path d="M22.0219 58.0164H21.2287C20.7745 58.0164 20.4022 58.3881 20.4022 58.8429C20.4022 59.2971 20.7739 59.6695 21.2287 59.6695H22.0219C22.4761 59.6695 22.8484 59.2977 22.8484 58.8429C22.8484 58.3881 22.4847 58.0164 22.0219 58.0164Z" fill="black"/>
<path d="M27.607 58.0164C27.1528 58.0164 26.7804 58.3881 26.7804 58.8429C26.7804 59.2971 27.1522 59.6695 27.607 59.6695H28.4001C28.8543 59.6695 29.2267 59.2977 29.2267 58.8429C29.2267 58.3887 28.8549 58.0164 28.4001 58.0164H27.607Z" fill="black"/>
<path d="M24.4182 58.0164C23.964 58.0164 23.5917 58.3881 23.5917 58.8429C23.5917 59.2971 23.9634 59.6695 24.4182 59.6695H25.2114C25.6656 59.6695 26.0379 59.2977 26.0379 58.8429C26.0379 58.3887 25.6662 58.0164 25.2114 58.0164H24.4182Z" fill="black"/>
<path d="M14.849 58.0164C14.3948 58.0164 14.0225 58.3881 14.0225 58.8429C14.0225 59.2971 14.3942 59.6695 14.849 59.6695H15.6422C16.0964 59.6695 16.4687 59.2977 16.4687 58.8429C16.4687 58.3887 16.0969 58.0164 15.6422 58.0164H14.849Z" fill="black"/>
<path d="M11.6603 58.0164C11.2061 58.0164 10.8337 58.3881 10.8337 58.8429C10.8337 59.2971 11.2055 59.6695 11.6603 59.6695H12.4534C12.9076 59.6695 13.28 59.2977 13.28 58.8429C13.28 58.3887 12.9082 58.0164 12.4534 58.0164H11.6603Z" fill="black"/>
<path d="M8.47012 59.6692H9.26324C9.71744 59.6692 10.0898 59.2975 10.0898 58.8427C10.0898 58.3885 9.71803 58.0161 9.26324 58.0161H8.47012C8.01592 58.0161 7.64355 58.3879 7.64355 58.8427C7.64413 59.2975 8.0159 59.6692 8.47012 59.6692Z" fill="black"/>
<path d="M18.0393 58.0164C17.5851 58.0164 17.2127 58.3881 17.2127 58.8429C17.2127 59.2971 17.5845 59.6695 18.0393 59.6695H18.8324C19.2866 59.6695 19.659 59.2977 19.659 58.8429C19.659 58.3887 19.2872 58.0164 18.8324 58.0164H18.0393Z" fill="black"/>
<path d="M6.08258 58.0164H5.28945C4.83525 58.0164 4.46289 58.3881 4.46289 58.8429C4.46289 59.2971 4.83466 59.6695 5.28945 59.6695H6.08258C6.53678 59.6695 6.90914 59.2977 6.90914 58.8429C6.90914 58.3881 6.53737 58.0164 6.08258 58.0164Z" fill="black"/>
<path d="M41.1588 58.0164H40.3656C39.9114 58.0164 39.5391 58.3881 39.5391 58.8429C39.5391 59.2971 39.9108 59.6695 40.3656 59.6695H41.1588C41.613 59.6695 41.9853 59.2977 41.9853 58.8429C41.9853 58.3881 41.6135 58.0164 41.1588 58.0164Z" fill="black"/>
<path d="M33.9785 58.0164C33.5243 58.0164 33.152 58.3881 33.152 58.8429C33.152 59.2971 33.5238 59.6695 33.9785 59.6695H34.7717C35.2259 59.6695 35.5982 59.2977 35.5982 58.8429C35.5982 58.3887 35.2265 58.0164 34.7717 58.0164H33.9785Z" fill="black"/>
<path d="M31.5911 58.0164H30.7979C30.3437 58.0164 29.9714 58.3881 29.9714 58.8429C29.9714 59.2971 30.3432 59.6695 30.7979 59.6695H31.5911C32.0453 59.6695 32.4176 59.2977 32.4176 58.8429C32.4176 58.3881 32.0459 58.0164 31.5911 58.0164Z" fill="black"/>
<path d="M37.1687 59.6692H37.9619C38.4161 59.6692 38.7884 59.2975 38.7884 58.8427C38.7884 58.3885 38.4166 58.0161 37.9619 58.0161H37.1687C36.7145 58.0161 36.3422 58.3879 36.3422 58.8427C36.3427 59.2975 36.7145 59.6692 37.1687 59.6692Z" fill="black"/>
<path d="M41.1588 4.95776H40.3656C39.9114 4.95776 39.5391 5.32954 39.5391 5.78433C39.5391 6.23853 39.9108 6.61089 40.3656 6.61089H41.1588C41.613 6.61089 41.9853 6.23912 41.9853 5.78433C41.9853 5.32954 41.6135 4.95776 41.1588 4.95776Z" fill="black"/>
<path d="M8.47012 6.61016H9.26324C9.71744 6.61016 10.0898 6.23839 10.0898 5.7836C10.0898 5.3294 9.71803 4.95703 9.26324 4.95703H8.47012C8.01592 4.95703 7.64355 5.32881 7.64355 5.7836C7.64413 6.23837 8.0159 6.61016 8.47012 6.61016Z" fill="black"/>
<path d="M18.8331 6.61016C19.2873 6.61016 19.6597 6.23839 19.6597 5.7836C19.6597 5.3294 19.2879 4.95703 18.8331 4.95703H18.04C17.5858 4.95703 17.2134 5.32881 17.2134 5.7836C17.2134 6.23779 17.5852 6.61016 18.04 6.61016H18.8331Z" fill="black"/>
<path d="M31.5911 6.61016C32.0453 6.61016 32.4176 6.23839 32.4176 5.7836C32.4176 5.3294 32.0459 4.95703 31.5911 4.95703H30.7979C30.3437 4.95703 29.9714 5.32881 29.9714 5.7836C29.9714 6.23779 30.3432 6.61016 30.7979 6.61016H31.5911Z" fill="black"/>
<path d="M34.7798 6.61016C35.234 6.61016 35.6063 6.23839 35.6063 5.7836C35.6063 5.3294 35.2346 4.95703 34.7798 4.95703H33.9867C33.5325 4.95703 33.1601 5.32881 33.1601 5.7836C33.1601 6.23779 33.5319 6.61016 33.9867 6.61016H34.7798Z" fill="black"/>
<path d="M37.97 4.95776H37.1768C36.7226 4.95776 36.3503 5.32954 36.3503 5.78433C36.3503 6.23853 36.7221 6.61089 37.1768 6.61089H37.97C38.4242 6.61089 38.7965 6.23912 38.7965 5.78433C38.796 5.32955 38.4242 4.95776 37.97 4.95776Z" fill="black"/>
<path d="M12.4615 6.61016C12.9157 6.61016 13.2881 6.23839 13.2881 5.7836C13.2881 5.3294 12.9163 4.95703 12.4615 4.95703H11.6684C11.2142 4.95703 10.8419 5.32881 10.8419 5.7836C10.8419 6.23779 11.2136 6.61016 11.6684 6.61016H12.4615Z" fill="black"/>
<path d="M6.08258 4.95776H5.28945C4.83525 4.95776 4.46289 5.32954 4.46289 5.78433C4.46289 6.23853 4.83466 6.61089 5.28945 6.61089H6.08258C6.53678 6.61089 6.90914 6.23912 6.90914 5.78433C6.90914 5.32954 6.53737 4.95776 6.08258 4.95776Z" fill="black"/>
<path d="M22.0219 6.61016C22.4761 6.61016 22.8484 6.23839 22.8484 5.7836C22.8484 5.3294 22.4766 4.95703 22.0219 4.95703H21.2287C20.7745 4.95703 20.4022 5.32881 20.4022 5.7836C20.4022 6.23779 20.7739 6.61016 21.2287 6.61016H22.0219Z" fill="black"/>
<path d="M14.849 6.61016H15.6422C16.0964 6.61016 16.4687 6.23839 16.4687 5.7836C16.4687 5.3294 16.0969 4.95703 15.6422 4.95703H14.849C14.3948 4.95703 14.0225 5.32881 14.0225 5.7836C14.0225 6.23839 14.3942 6.61016 14.849 6.61016Z" fill="black"/>
<path d="M24.4182 6.61016H25.2114C25.6656 6.61016 26.0379 6.23839 26.0379 5.7836C26.0379 5.3294 25.6662 4.95703 25.2114 4.95703H24.4182C23.964 4.95703 23.5917 5.32881 23.5917 5.7836C23.5917 6.23839 23.9634 6.61016 24.4182 6.61016Z" fill="black"/>
<path d="M28.4008 6.61016C28.855 6.61016 29.2274 6.23839 29.2274 5.7836C29.2274 5.3294 28.8556 4.95703 28.4008 4.95703H27.6077C27.1535 4.95703 26.7811 5.32881 26.7811 5.7836C26.7811 6.23779 27.1529 6.61016 27.6077 6.61016H28.4008Z" fill="black"/>
<path d="M45.6135 0H0.826565C0.372365 0 0 0.371773 0 0.826563V64.1734C0 64.6276 0.371775 65 0.826565 65H45.6135C46.0677 65 46.4401 64.6282 46.4401 64.1734V0.826563C46.4401 0.372363 46.0683 0.000575275 45.6141 0.000575275L45.6135 0ZM1.65289 63.3454V59.5192C1.90882 59.6103 2.19009 59.6679 2.47946 59.6679H2.89274C3.34694 59.6679 3.7193 59.2961 3.7193 58.8414C3.7193 58.3872 3.34753 58.0148 2.89274 58.0148H2.47946C2.02526 58.0148 1.65289 57.643 1.65289 57.1882V7.43592C1.65289 6.98172 2.02467 6.60935 2.47946 6.60935H2.89274C3.34694 6.60935 3.7193 6.23758 3.7193 5.78279C3.7193 5.32859 3.34753 4.95623 2.89274 4.95623H2.47946C2.19011 4.95623 1.90939 5.01386 1.65289 5.10493V1.65118H44.7872V5.10493C44.5313 5.01386 44.25 4.95623 43.9606 4.95623H43.5473C43.0931 4.95623 42.7208 5.328 42.7208 5.78279C42.7208 6.23699 43.0926 6.60935 43.5473 6.60935H43.9606C44.4148 6.60935 44.7872 6.98113 44.7872 7.43592V57.1897C44.7872 57.6439 44.4154 58.0163 43.9606 58.0163H43.5473C43.0931 58.0163 42.7208 58.388 42.7208 58.8428C42.7208 59.297 43.0926 59.6694 43.5473 59.6694H43.9606C44.25 59.6694 44.5307 59.6118 44.7872 59.5207V63.3469L1.65289 63.3454Z" fill="black"/>
<path d="M4.31335 3.90796H42.1267C42.4656 3.90796 42.7463 3.62726 42.7463 3.28833C42.7463 2.9494 42.4656 2.6687 42.1267 2.6687H4.31335C3.97442 2.6687 3.69373 2.9494 3.69373 3.28833C3.69373 3.62726 3.96637 3.90796 4.31335 3.90796Z" fill="black"/>
<path d="M42.1754 60.8008H4.36206C4.02313 60.8008 3.74243 61.0815 3.74243 61.4204C3.74243 61.7593 4.02313 62.04 4.36206 62.04H42.1754C42.5143 62.04 42.795 61.7593 42.795 61.4204C42.795 61.0815 42.5143 60.8008 42.1754 60.8008Z" fill="black"/>
<path d="M36.5401 41.0178C36.8295 41.0178 37.1021 40.8691 37.2589 40.6045C37.49 40.208 37.35 39.7036 36.9534 39.4725L33.367 37.4067L36.8128 35.4152C37.2093 35.1841 37.3419 34.6797 37.1183 34.2832C36.8871 33.8866 36.3828 33.754 35.9862 33.9777L31.714 36.4401L24.8721 32.4987L31.714 28.5486L35.9862 31.011C36.1182 31.0854 36.2589 31.1182 36.3995 31.1182C36.6888 31.1182 36.9615 30.9695 37.1183 30.7049C37.3494 30.3084 37.2093 29.804 36.8128 29.5729L33.367 27.5814L36.9534 25.5156C37.35 25.2845 37.4825 24.7801 37.2589 24.3836C37.0278 23.987 36.5234 23.8544 36.1268 24.0781L32.5404 26.1439V22.169C32.5404 21.7148 32.1687 21.3424 31.7139 21.3424C31.2597 21.3424 30.8873 21.7142 30.8873 22.169V27.1024L24.046 31.0693V23.161L28.3183 20.6985C28.7149 20.4674 28.8474 19.9631 28.6238 19.5665C28.3927 19.1699 27.8883 19.0374 27.4917 19.261L24.046 21.2525V17.1127C24.046 16.6585 23.6742 16.2861 23.2194 16.2861C22.7652 16.2861 22.3928 16.6579 22.3928 17.1127V21.2525L18.947 19.261C18.5505 19.0299 18.0461 19.1699 17.815 19.5665C17.5839 19.9631 17.7239 20.4674 18.1205 20.6985L22.3927 23.161V31.0605L15.5509 27.1104V22.1769C15.5509 21.7227 15.1791 21.3504 14.7243 21.3504C14.2701 21.3504 13.8978 21.7221 13.8978 22.1769V26.1519L10.3114 24.086C9.9148 23.8549 9.41044 23.995 9.17931 24.3915C8.94817 24.7881 9.08824 25.2925 9.4848 25.5236L13.0712 27.5894L9.62542 29.5809C9.22886 29.812 9.09629 30.3163 9.31993 30.7129C9.47671 30.9775 9.74935 31.1262 10.0387 31.1262C10.1793 31.1262 10.3194 31.0933 10.452 31.019L14.7242 28.5565L21.5667 32.4986L14.7248 36.4487L10.4526 33.9862C10.056 33.7551 9.55166 33.8952 9.32052 34.2917C9.08938 34.6883 9.22945 35.1926 9.62601 35.4238L13.0718 37.4152L9.48539 39.4811C9.08882 39.7122 8.95626 40.2165 9.1799 40.6131C9.33668 40.8777 9.60932 41.0264 9.89867 41.0264C10.0393 41.0264 10.1794 40.9935 10.312 40.9192L13.8984 38.8534V42.8283C13.8984 43.2825 14.2701 43.6549 14.7249 43.6549C15.1791 43.6549 15.5515 43.2831 15.5515 42.8283V37.8948L22.3927 33.928V41.8275L18.1205 44.29C17.7239 44.5211 17.5914 45.0255 17.815 45.4221C18.0461 45.8186 18.5505 45.9512 18.947 45.7276L22.3928 43.7447V47.8844C22.3928 48.3386 22.7646 48.711 23.2194 48.711C23.6736 48.711 24.046 48.3392 24.046 47.8844V43.7447L27.4917 45.7361C27.6237 45.8105 27.7644 45.8433 27.905 45.8433C28.1944 45.8433 28.467 45.6946 28.6238 45.43C28.8549 45.0335 28.7149 44.5291 28.3183 44.298L24.046 41.8361V33.9366L30.8879 37.8867V42.8202C30.8879 43.2744 31.2597 43.6467 31.7145 43.6467C32.1687 43.6467 32.541 43.275 32.541 42.8202V38.8453L36.1274 40.9111C36.2589 40.9768 36.3995 41.0178 36.5401 41.0178Z" fill="black"/>
</svg>
