<svg width="69" height="86" viewBox="0 0 69 86" fill="none" xmlns="http://www.w3.org/2000/svg">
<g clip-path="url(#clip0_1_320)">
<path d="M28.3719 29.1003C27.2546 29.2568 26.2149 29.7597 25.3999 30.5377C24.5849 31.3157 24.0358 32.3295 23.8304 33.4357C23.6249 34.542 23.7735 35.6846 24.2551 36.702C24.7367 37.7194 25.5269 38.5601 26.5139 39.1051C27.501 39.6502 28.6349 39.872 29.7553 39.7392C30.8757 39.6064 31.9259 39.1257 32.7573 38.3651C33.5887 37.6046 34.1593 36.6026 34.3882 35.501C34.6172 34.3993 34.493 33.2538 34.0332 32.2264C32.9159 32.1575 31.8281 31.8411 30.8488 31.3003C29.8695 30.7596 29.0234 30.008 28.3719 29.1003V29.1003Z" fill="#612A83"/>
<path d="M46.3594 51.6001C46.3575 51.2161 46.3145 50.8333 46.2311 50.4584C45.0746 50.6139 43.8977 50.495 42.796 50.1115C41.6943 49.7281 40.6988 49.0908 39.8906 48.2515C38.7705 49.3986 37.3113 50.1577 35.7269 50.4176C35.5576 51.1551 35.5465 51.9199 35.6943 52.6619C35.8421 53.404 36.1456 54.1065 36.5848 54.7234C37.024 55.3403 37.589 55.8577 38.2428 56.2416C38.8966 56.6256 39.6243 56.8674 40.3784 56.9513C41.1325 57.0351 41.8958 56.9591 42.6184 56.7283C43.3409 56.4974 44.0064 56.1168 44.5711 55.6116C45.1358 55.1063 45.5871 54.4877 45.8953 53.7964C46.2034 53.1051 46.3616 52.3566 46.3594 51.6001V51.6001Z" fill="#612A83"/>
<path d="M18.6882 29.0981C17.8629 29.2076 17.0743 29.5066 16.3847 29.9717C15.695 30.4368 15.123 31.0552 14.7138 31.7782C14.3046 32.5012 14.0694 33.309 14.0267 34.1381C13.9839 34.9672 14.1348 35.7948 14.4675 36.5559C14.8001 37.3169 15.3055 37.9905 15.9437 38.5237C16.5819 39.0568 17.3355 39.4349 18.1452 39.6282C18.9549 39.8215 19.7986 39.8246 20.6097 39.6375C21.4209 39.4503 22.1774 39.0779 22.8196 38.5495C22.1578 37.5558 21.743 36.4192 21.6095 35.2338C21.4761 34.0484 21.6277 32.8483 22.052 31.733C20.6983 31.1983 19.5297 30.2829 18.6882 29.0981V29.0981Z" fill="#612A83"/>
<path d="M31.1373 41.6413C31.4488 43.2928 31.1892 45.0009 30.401 46.4863C30.907 47.0764 31.5353 47.5501 32.2425 47.8749C32.9498 48.1998 33.7192 48.368 34.4978 48.368C35.2765 48.368 36.0459 48.1998 36.7532 47.8749C37.4604 47.5501 38.0887 47.0764 38.5947 46.4863C37.8038 45.0002 37.5444 43.2898 37.8594 41.637C36.5835 41.2847 35.4242 40.601 34.5 39.6558C33.5732 40.6003 32.4135 41.285 31.1373 41.6413V41.6413Z" fill="#612A83"/>
<path d="M45.2812 48.375C48.2584 48.375 50.6719 45.9685 50.6719 43C50.6719 40.0315 48.2584 37.625 45.2812 37.625C42.3041 37.625 39.8906 40.0315 39.8906 43C39.8906 45.9685 42.3041 48.375 45.2812 48.375Z" fill="#612A83"/>
<path d="M24.7969 19.3501C23.5159 19.3485 22.2764 19.8026 21.3011 20.6306C20.3258 21.4586 19.6787 22.6063 19.476 23.8675C19.2734 25.1286 19.5285 26.4205 20.1955 27.5109C20.8625 28.6013 21.8977 29.4187 23.115 29.8163C24.1639 28.4463 25.656 27.4804 27.338 27.0826C26.9771 26.0033 26.868 24.8561 27.0192 23.7285C27.1703 22.6008 27.5777 21.5225 28.2102 20.5756C27.2486 19.7862 26.0425 19.3531 24.7969 19.3501Z" fill="#612A83"/>
<path d="M42.0469 24.7251C42.0479 26.2017 41.6104 27.6455 40.7898 28.8746C41.5787 29.5222 42.5359 29.933 43.5499 30.0589C44.564 30.1848 45.593 30.0208 46.5171 29.5859C47.4412 29.151 48.2223 28.4631 48.7693 27.6025C49.3164 26.7419 49.6068 25.744 49.6068 24.7251C49.6068 23.7062 49.3164 22.7083 48.7693 21.8477C48.2223 20.9871 47.4412 20.2992 46.5171 19.8643C45.593 19.4294 44.564 19.2654 43.5499 19.3913C42.5359 19.5172 41.5787 19.928 40.7898 20.5756C41.6104 21.8047 42.0479 23.2485 42.0469 24.7251V24.7251Z" fill="#612A83"/>
<path d="M47.4375 34.4001C47.436 34.856 47.3931 35.3108 47.3092 35.7589C49.2253 36.2958 50.8522 37.5637 51.8373 39.2881C52.7753 38.8581 53.5702 38.1693 54.1279 37.3031C54.6856 36.4368 54.9828 35.4295 54.9844 34.4001C54.9877 33.1036 54.5171 31.8503 53.6607 30.8748C52.8042 29.8993 51.6205 29.2684 50.3312 29.1003C49.4773 30.2872 48.2965 31.2017 46.9319 31.733C47.2614 32.584 47.4328 33.4878 47.4375 34.4001V34.4001Z" fill="#612A83"/>
<path d="M35.5781 17.286V12.9C35.58 11.3762 36.1221 9.90206 37.1085 8.73812C38.0949 7.57418 39.4622 6.79536 40.9688 6.53927V4.3667C38.8854 4.6312 36.9701 5.64342 35.5811 7.21402C34.1921 8.78462 33.4245 10.806 33.4219 12.9V17.286C34.136 17.1714 34.864 17.1714 35.5781 17.286V17.286Z" fill="#B62D2D"/>
<path d="M34.5 30.1001C37.4772 30.1001 39.8906 27.6936 39.8906 24.7251C39.8906 21.7566 37.4772 19.3501 34.5 19.3501C31.5228 19.3501 29.1094 21.7566 29.1094 24.7251C29.1094 27.6936 31.5228 30.1001 34.5 30.1001Z" fill="#612A83"/>
<path d="M17.6737 22.2622C18.0701 21.1286 18.7319 20.1057 19.6041 19.2782C20.4764 18.4507 21.534 17.8426 22.6891 17.5042C20.2659 16.5757 17.6897 16.1079 15.0937 16.125C14.8078 16.125 14.5336 16.0117 14.3314 15.8101C14.1292 15.6085 14.0156 15.3351 14.0156 15.05C14.0156 14.7649 14.1292 14.4915 14.3314 14.2899C14.5336 14.0883 14.8078 13.975 15.0937 13.975C19.7305 13.9181 24.2689 15.3089 28.0733 17.9525C28.6376 18.2251 29.1656 18.5667 29.6452 18.9695C29.8252 18.8179 30.0139 18.676 30.208 18.5395C29.2045 16.228 27.5454 14.2594 25.4349 12.8755C23.3243 11.4916 20.8541 10.7529 18.3281 10.75H7.59215C7.83454 13.4857 8.9412 16.0743 10.7529 18.143C12.5645 20.2117 14.9877 21.654 17.6737 22.2622V22.2622Z" fill="#55AE0F"/>
<path d="M38.5559 39.6031C39.1767 38.3821 40.1197 37.353 41.2835 36.6268C42.4473 35.9005 43.7878 35.5046 45.1605 35.4816C45.4013 34.3854 45.2803 33.2409 44.8155 32.2189C44.6128 32.2351 44.4101 32.2501 44.2031 32.2501C42.4273 32.2471 40.7093 31.6198 39.3516 30.4785C38.4562 31.2305 37.397 31.7635 36.2584 32.0351C36.5168 32.7972 36.6511 33.5957 36.6563 34.4001C36.6577 35.6152 36.3617 36.8123 35.7938 37.8874C36.5142 38.7306 37.4793 39.3301 38.5559 39.6031V39.6031Z" fill="#612A83"/>
<path d="M34.5 64.5C35.9292 64.4983 37.2993 63.9315 38.3099 62.9238C39.3204 61.9162 39.8889 60.55 39.8906 59.125C39.8906 59.096 39.882 59.067 39.882 59.038C38.7747 58.8762 37.7173 58.4708 36.7865 57.8513C35.8556 57.2318 35.0746 56.4136 34.5 55.4561C33.9253 56.4138 33.1441 57.232 32.2131 57.8515C31.282 58.4711 30.2244 58.8763 29.1169 59.038C29.1169 59.067 29.1094 59.096 29.1094 59.125C29.1111 60.55 29.6796 61.9162 30.6901 62.9238C31.7007 63.9315 33.0708 64.4983 34.5 64.5V64.5Z" fill="#612A83"/>
<path d="M29.1094 42.9999C29.1061 42.6363 29.0656 42.2739 28.9886 41.9185C27.2545 41.8926 25.5829 41.2689 24.2578 40.1533C23.4669 40.8283 22.542 41.3291 21.5436 41.6231C20.5451 41.9171 19.4957 41.9976 18.464 41.8593C18.2943 42.5994 18.2838 43.3668 18.4331 44.1112C18.5824 44.8556 18.8882 45.56 19.3302 46.178C19.7723 46.7961 20.3406 47.3137 20.9978 47.6969C21.655 48.0801 22.3862 48.3202 23.1431 48.4013C23.9001 48.4824 24.6657 48.4027 25.3895 48.1675C26.1134 47.9322 26.779 47.5468 27.3427 47.0365C27.9064 46.5262 28.3552 45.9027 28.6597 45.2069C28.9642 44.5112 29.1175 43.759 29.1094 42.9999V42.9999Z" fill="#612A83"/>
<path d="M28.0313 56.9751C28.8423 56.9843 29.6448 56.8088 30.3775 56.462C31.1102 56.1152 31.7539 55.6061 32.2594 54.9737C32.765 54.3413 33.1191 53.6021 33.2947 52.8125C33.4704 52.023 33.463 51.2039 33.2731 50.4176C31.6891 50.1566 30.2302 49.3976 29.1094 48.2515C28.3009 49.0905 27.3055 49.7276 26.2039 50.1113C25.1023 50.4949 23.9254 50.6142 22.7689 50.4595C22.5901 51.2442 22.5917 52.0591 22.7736 52.8432C22.9555 53.6272 23.3129 54.36 23.8191 54.9868C24.3253 55.6136 24.9672 56.118 25.6966 56.4623C26.4261 56.8066 27.2242 56.9819 28.0313 56.9751V56.9751Z" fill="#612A83"/>
</g>
<defs>
<clipPath id="clip0_1_320">
<rect width="69" height="86" fill="white"/>
</clipPath>
</defs>
</svg>
