<svg width="61" height="56" viewBox="0 0 61 56" fill="none" xmlns="http://www.w3.org/2000/svg">
<path d="M19.5738 23.3735C15.2425 32.9185 15.3456 42.671 19.78 52.216C18.5425 52.3197 16.0675 52.4235 14.7269 52.3197C9.36438 51.9047 4.72375 47.651 2.35188 42.9822C-1.2575 35.616 -0.94812 25.4485 4.93 19.3272C9.88 14.1397 16.8925 12.6872 24.0081 12.2722C23.1831 12.6872 20.3988 13.4135 20.2956 13.4135C19.78 13.3097 19.2644 13.621 19.0581 14.036C18.8519 14.5547 19.0581 15.1772 19.5738 15.3847C19.5738 15.3847 22.0488 16.0072 23.8019 16.111C22.3581 18.186 20.8113 20.676 19.5738 23.3735Z" fill="#FF7300"/>
<path d="M38.6519 52.5273C38.4456 53.046 38.0331 53.461 37.6206 53.7723C35.9706 54.4985 33.4956 55.2248 30.4019 55.2248C27.4113 55.3285 24.9363 54.6023 23.1831 53.7723C22.7706 53.461 22.4613 52.9423 22.1519 52.5273C17.4081 43.086 17.0988 33.6448 21.3269 24.3073C22.8738 20.9873 24.73 18.186 26.4831 16.0073C26.8956 15.9035 27.4113 15.7998 27.8238 15.696C28.3394 17.1485 29.2675 19.1198 30.9175 19.3273C32.6706 19.431 33.7019 17.771 34.4238 16.4223C36.0738 18.601 37.8269 21.1948 39.2706 24.411C43.705 33.6448 43.3956 43.086 38.6519 52.5273Z" fill="#FF7300"/>
<path d="M58.555 42.9822C56.2863 47.651 51.5425 51.9047 46.18 52.3197C44.8394 52.4235 42.4675 52.3197 41.1269 52.216C45.6644 42.5672 45.7675 32.9185 41.3331 23.3735C40.1988 20.8835 38.8581 18.7047 37.5175 16.7335C38.6519 16.8372 39.8894 16.6297 41.23 16.2147C41.6425 16.0072 41.9519 15.5922 41.9519 15.1772C41.9519 14.3472 41.3331 14.2435 40.8175 14.1397C40.6113 14.036 38.2394 12.9985 37.2081 12.2722C44.2206 12.6872 51.0269 14.1397 55.9769 19.2235C61.9581 25.4485 62.2675 35.616 58.555 42.9822Z" fill="#FF7300"/>
<path d="M34.4238 0.0297838C33.9081 -0.177716 33.1863 0.756034 32.98 1.06728C32.3613 1.79353 31.0206 7.08478 30.0925 8.74478C28.3394 11.6498 25.0394 13.4135 21.8425 14.2435C21.43 14.3473 20.5019 14.7623 20.0894 14.6585C20.0894 14.6585 24.73 16.111 28.855 14.3473C28.855 14.3473 30.7113 22.8548 34.2175 14.9698C34.2175 14.9698 37.5175 16.7335 41.0238 15.3848C40.7144 15.4885 39.8894 14.9698 39.6831 14.866C36.8988 13.7248 33.9081 11.546 33.3925 8.32978C33.1863 6.87728 33.9081 3.86853 35.7644 3.76478C35.9706 3.76478 36.1769 3.66103 36.28 3.34978C36.3831 2.62353 36.5894 0.859784 34.4238 0.0297838Z" fill="#55AE0F"/>
</svg>
